<?xml version="1.0" encoding="utf-8"?>
<!-- Generator: Adobe Illustrator 17.1.0, SVG Export Plug-In . SVG Version: 6.00 Build 0)  -->
<!DOCTYPE svg PUBLIC "-//W3C//DTD SVG 1.1//EN" "http://www.w3.org/Graphics/SVG/1.1/DTD/svg11.dtd">
<svg version="1.1" id="Layer_1" xmlns="http://www.w3.org/2000/svg" xmlns:xlink="http://www.w3.org/1999/xlink" x="0px" y="0px"
	 viewBox="0 0 100 100" enable-background="new 0 0 100 100" xml:space="preserve">
<g id="Background">
	
		<linearGradient id="Fill_1_" gradientUnits="userSpaceOnUse" x1="65.1014" y1="-123.8776" x2="65.1014" y2="12.4038" gradientTransform="matrix(0.7191 0 0 0.7191 3.1856 90.0804)">
		<stop  offset="0" style="stop-color:#F3F3F3"/>
		<stop  offset="0.1624" style="stop-color:#EDEDED"/>
		<stop  offset="0.3608" style="stop-color:#DFDFDF"/>
		<stop  offset="0.5781" style="stop-color:#C6C6C7"/>
		<stop  offset="0.8072" style="stop-color:#A2A3A5"/>
		<stop  offset="1" style="stop-color:#818285"/>
	</linearGradient>
	<rect id="Fill" x="1" y="1" fill="url(#Fill_1_)" width="98" height="98"/>
	<path id="Outline" fill="#666766" d="M98,2v96H2V2H98 M100,0H0v100h100V0L100,0z"/>
</g>
<g id="Icon">
	<g id="PC">
		<polygon id="Foot" fill="#CCCCCC" stroke="#333333" stroke-width="1.5" stroke-miterlimit="10" points="23.9,27.5 24.4,63.4 
			69.1,76.8 76.6,76.6 78.9,32.9 		"/>
		<polygon id="Base_2_" fill="#CCCCCC" stroke="#333333" stroke-width="1.5" stroke-miterlimit="10" points="13,5 12.6,55.2 
			79.4,73.6 90.7,73.2 95.5,12 		"/>
		<line id="Line" fill="none" stroke="#333333" stroke-miterlimit="10" x1="85.2" y1="10.5" x2="79.4" y2="73.6"/>
		<polygon id="Screen" fill="#333333" stroke="#333333" stroke-miterlimit="10" points="17.9,9.6 78.6,15.7 74.2,66.4 16.8,52.6 		
			"/>
	</g>
	<g id="DHCP">
		<g id="Boxes">
			<polygon id="Rectangle_1_" fill="#CCCCCC" stroke="#000000" stroke-miterlimit="10" points="60.4,46 4.6,52.2 4.6,29 60.4,32 			
				"/>
			<polygon id="Square_1" fill="#CCCCCC" stroke="#333333" stroke-width="0.75" stroke-miterlimit="10" points="23.4,48.4 6.5,50 
				6.5,31.4 23.5,32.1 			"/>
			<polygon id="Square_2" fill="#CCCCCC" stroke="#333333" stroke-width="0.75" stroke-miterlimit="10" points="37.8,47 24.9,48.2 
				24.9,32.1 37.8,32.6 			"/>
			<polygon id="Square_3" fill="#CCCCCC" stroke="#333333" stroke-width="0.75" stroke-miterlimit="10" points="49.2,45.9 
				39.1,46.9 39.1,32.6 49.2,33.1 			"/>
			<polygon id="Square_4" fill="#CCCCCC" stroke="#333333" stroke-width="0.75" stroke-miterlimit="10" points="58.5,45.1 
				50.3,45.8 50.3,33.2 58.5,33.5 			"/>
		</g>
		<g id="Numbers">
			<path id="_x31_" fill="#1C1C1C" d="M10.7,45.2l-1.2,0.1v-5.9c-0.4,0.6-0.9,1-1.6,1.3v-1.4c0.3-0.2,0.6-0.5,1-0.9s0.6-0.8,0.8-1.3
				l1-0.1C10.7,36.9,10.7,45.2,10.7,45.2z"/>
			<path id="_x39_" fill="#1C1C1C" d="M12.5,43.2l1.2-0.3c0,0.3,0.1,0.5,0.3,0.7c0.1,0.2,0.3,0.2,0.5,0.2c0.3,0,0.4-0.2,0.6-0.5
				c0.2-0.3,0.3-0.9,0.3-1.9c-0.3,0.5-0.7,0.8-1.1,0.8c-0.5,0-0.9-0.2-1.3-0.7c-0.3-0.5-0.6-1.1-0.6-1.9c0-0.9,0.2-1.5,0.6-2.1
				c0.4-0.5,0.9-0.8,1.4-0.9c0.6,0,1.2,0.2,1.6,0.9c0.4,0.7,0.6,1.7,0.6,3.1s-0.2,2.6-0.6,3.3s-1,1-1.7,1.1c-0.5,0-0.9-0.1-1.2-0.4
				C12.8,44.3,12.6,43.8,12.5,43.2z M15.2,39.5c0-0.5-0.1-0.9-0.3-1.2s-0.4-0.4-0.6-0.4c-0.3,0-0.4,0.1-0.6,0.4
				c-0.1,0.2-0.3,0.6-0.3,1.1c0,0.6,0.1,0.9,0.3,1.2c0.2,0.2,0.4,0.3,0.6,0.3c0.3,0,0.4-0.1,0.6-0.4C15.2,40.4,15.2,40,15.2,39.5z"
				/>
			<path id="_x32_" fill="#1C1C1C" d="M21.4,43v1.5l-4.2,0.3c0.1-0.5,0.2-1.1,0.4-1.6c0.3-0.5,0.7-1.2,1.4-2.1
				c0.6-0.7,0.9-1.1,1-1.4c0.2-0.3,0.3-0.7,0.3-1c0-0.4-0.1-0.6-0.2-0.8s-0.3-0.3-0.6-0.3c-0.3,0-0.4,0.1-0.6,0.3s-0.3,0.6-0.3,1
				l-1.2-0.1c0.1-0.8,0.3-1.5,0.7-1.9c0.4-0.4,0.9-0.6,1.4-0.6c0.6,0,1.1,0.1,1.4,0.5c0.4,0.4,0.5,0.9,0.5,1.6
				c0,0.4-0.1,0.7-0.1,1.1c-0.1,0.3-0.3,0.7-0.5,1.1c-0.1,0.3-0.4,0.6-0.8,1.1s-0.6,0.8-0.8,0.9c-0.1,0.2-0.2,0.3-0.3,0.4H21.4z"/>
		</g>
	</g>
</g>
<g enable-background="new    ">
	<path d="M33.7,86.1h3.2c0.7,0,1.3,0.1,1.6,0.2c0.5,0.1,0.9,0.4,1.3,0.8s0.6,0.8,0.8,1.4s0.3,1.2,0.3,2c0,0.7-0.1,1.3-0.3,1.8
		c-0.2,0.6-0.5,1.1-0.9,1.5c-0.3,0.3-0.7,0.5-1.2,0.7c-0.4,0.1-0.9,0.2-1.5,0.2h-3.3C33.7,94.7,33.7,86.1,33.7,86.1z M35.4,87.5v5.7
		h1.3c0.5,0,0.8,0,1-0.1c0.3-0.1,0.5-0.2,0.7-0.4s0.3-0.4,0.5-0.8s0.2-0.9,0.2-1.6s-0.1-1.2-0.2-1.5s-0.3-0.6-0.5-0.8
		s-0.5-0.3-0.8-0.4c-0.2-0.1-0.7-0.1-1.4-0.1C36.2,87.5,35.4,87.5,35.4,87.5z"/>
	<path d="M42.4,94.7v-8.6h1.7v3.4h3.4v-3.4h1.7v8.6h-1.7v-3.8h-3.4v3.8H42.4z"/>
	<path d="M56.5,91.5l1.7,0.5c-0.3,0.9-0.7,1.6-1.3,2.1s-1.4,0.7-2.3,0.7c-1.1,0-2.1-0.4-2.8-1.2s-1.1-1.8-1.1-3.2
		c0-1.4,0.4-2.5,1.1-3.3s1.7-1.2,2.9-1.2c1.1,0,1.9,0.3,2.6,0.9c0.4,0.4,0.7,0.9,0.9,1.6l-1.7,0.4c-0.1-0.4-0.3-0.8-0.6-1.1
		s-0.7-0.4-1.2-0.4c-0.6,0-1.2,0.2-1.5,0.7s-0.6,1.2-0.6,2.2c0,1.1,0.2,1.9,0.6,2.3s0.9,0.7,1.5,0.7c0.5,0,0.9-0.1,1.2-0.4
		S56.4,92.1,56.5,91.5z"/>
	<path d="M59.7,94.7v-8.6h2.8c1.1,0,1.7,0,2.1,0.1c0.5,0.1,0.9,0.4,1.2,0.8s0.5,1,0.5,1.7c0,0.5-0.1,1-0.3,1.3s-0.4,0.6-0.7,0.8
		s-0.6,0.3-0.9,0.4c-0.4,0.1-1,0.1-1.8,0.1h-1.1v3.2h-1.8V94.7z M61.4,87.5V90h0.9c0.7,0,1.1,0,1.4-0.1s0.4-0.2,0.5-0.4
		s0.2-0.4,0.2-0.7c0-0.3-0.1-0.6-0.3-0.8s-0.4-0.3-0.7-0.4c-0.2,0-0.6-0.1-1.2-0.1H61.4z"/>
</g>
</svg>
