<?xml version="1.0" encoding="UTF-8" standalone="no"?>
<!-- Generator: Adobe Illustrator 15.1.0, SVG Export Plug-In  -->

<svg
   xmlns:dc="http://purl.org/dc/elements/1.1/"
   xmlns:cc="http://creativecommons.org/ns#"
   xmlns:rdf="http://www.w3.org/1999/02/22-rdf-syntax-ns#"
   xmlns:svg="http://www.w3.org/2000/svg"
   xmlns="http://www.w3.org/2000/svg"
   xmlns:sodipodi="http://sodipodi.sourceforge.net/DTD/sodipodi-0.dtd"
   xmlns:inkscape="http://www.inkscape.org/namespaces/inkscape"
   version="1.1"
   x="0px"
   y="0px"
   width="100"
   height="100"
   viewBox="-0.75 -0.339 100 100"
   overflow="visible"
   enable-background="new -0.75 -0.339 100 37"
   xml:space="preserve"
   id="svg12985"
   inkscape:version="0.48.3.1 r9886"
   sodipodi:docname="iWirelessEndDevice.svg"
   style="overflow:visible"><metadata
   id="metadata13007"><rdf:RDF><cc:Work
       rdf:about=""><dc:format>image/svg+xml</dc:format><dc:type
         rdf:resource="http://purl.org/dc/dcmitype/StillImage" /></cc:Work></rdf:RDF></metadata><sodipodi:namedview
   pagecolor="#ffffff"
   bordercolor="#666666"
   borderopacity="1"
   objecttolerance="10"
   gridtolerance="10"
   guidetolerance="10"
   inkscape:pageopacity="0"
   inkscape:pageshadow="2"
   inkscape:window-width="640"
   inkscape:window-height="480"
   id="namedview13005"
   showgrid="false"
   inkscape:zoom="2.92"
   inkscape:cx="50"
   inkscape:cy="45.89726"
   inkscape:window-x="0"
   inkscape:window-y="24"
   inkscape:window-maximized="0"
   inkscape:current-layer="svg12985" />
<defs
   id="defs12987">
</defs>
<polygon
   points="98.75,0 98.75,17.112 81.796,35.838 81.796,15.429 "
   id="polygon12989"
   style="fill:#006c86"
   transform="translate(0,33)" />
<rect
   y="48.429001"
   width="81.795998"
   height="20.408001"
   id="rect12991"
   x="0"
   style="fill:#5298ae" />
<polygon
   points="19.888,0 98.75,0 81.796,15.429 0,15.429 "
   id="polygon12993"
   style="fill:#90bbcb"
   transform="translate(0,33)" />
<path
   d="m 71.749,64.275 c 0.747,-0.767 0.995,-2.045 0.995,-3.323 0,-1.278 -0.248,-2.556 -0.995,-3.323 l 0.995,-1.788 c 0.998,1.278 1.744,3.067 1.496,5.112 0,2.046 -0.498,3.835 -1.496,5.113 l -0.995,-1.791 z"
   id="path12995"
   inkscape:connector-curvature="0"
   style="fill:#006c86" />
<path
   d="m 77.477,65.553 c 0.75,-1.023 0.998,-2.556 0.998,-4.345 0,-1.534 -0.248,-3.324 -0.998,-4.347 l 0.998,-2.044 c 0.996,1.79 1.494,4.089 1.494,6.39 0,2.299 -0.498,4.6 -1.494,6.388 l -0.998,-2.042 z"
   id="path12997"
   inkscape:connector-curvature="0"
   style="fill:#006c86" />
<path
   d="m 65.771,64.275 c -0.497,-0.767 -0.994,-2.045 -0.994,-3.323 0,-1.278 0.498,-2.556 0.994,-3.323 l -0.994,-1.788 c -0.998,1.278 -1.496,3.067 -1.496,5.112 0,2.046 0.498,3.835 1.496,5.113 l 0.994,-1.791 z"
   id="path12999"
   inkscape:connector-curvature="0"
   style="fill:#006c86" />
<path
   d="m 60.789,65.553 c -0.499,-1.023 -0.995,-2.556 -0.995,-4.345 0,-1.534 0.498,-3.324 0.995,-4.347 l -0.995,-2.044 c -0.996,1.79 -1.496,4.089 -1.496,6.39 0,2.299 0.5,4.6 1.496,6.388 l 0.995,-2.042 z"
   id="path13001"
   inkscape:connector-curvature="0"
   style="fill:#006c86" />
<circle
   cx="68.634003"
   cy="27.872"
   r="0.98299998"
   id="circle13003"
   sodipodi:cx="68.634003"
   sodipodi:cy="27.872"
   sodipodi:rx="0.98299998"
   sodipodi:ry="0.98299998"
   style="fill:#00546d"
   transform="translate(0,33)" />
</svg>