<?xml version="1.0" encoding="utf-8"?>
<!-- Generator: Adobe Illustrator 17.1.0, SVG Export Plug-In . SVG Version: 6.00 Build 0)  -->
<!DOCTYPE svg PUBLIC "-//W3C//DTD SVG 1.1//EN" "http://www.w3.org/Graphics/SVG/1.1/DTD/svg11.dtd">
<svg version="1.1" xmlns="http://www.w3.org/2000/svg" xmlns:xlink="http://www.w3.org/1999/xlink" x="0px" y="0px"
	 width="425px" height="120px" viewBox="0 0 425 120" enable-background="new 0 0 425 120" xml:space="preserve">
<symbol  id="RSS" viewBox="-28 -28 56 56">
	<path id="circle_2_" d="M-13-20.5c0-4.1-3.4-7.5-7.5-7.5c-4.1,0-7.5,3.3-7.5,7.5c0,4.1,3.4,7.5,7.5,7.5C-16.3-13-13-16.4-13-20.5z"
		/>
	<path d="M8.8-27.6h-9.9C-1.2-20.5-4-13.9-9-9c-5,5-11.5,7.8-18.5,7.9v9.8C-7.6,8.5,8.5-7.7,8.8-27.6L8.8-27.6z"/>
	<path d="M28-27.6h-9.8C17.9-2.5-2.4,17.9-27.5,18.2V28C3,27.7,27.7,2.9,28-27.6L28-27.6z"/>
</symbol>
<g id="Generic_Wired_Device_Front">
	<g id="Body">
		<polyline id="Bottom" fill="#2F5160" points="31.6,113.6 48.2,119.4 94.4,119.4 127.8,117.2 306.9,117.2 338.9,119.1 384.7,119.1 
			396.7,115.2 401.8,114.6 401.8,113 		"/>
		<g id="Main_Body">
			<path fill="#578DB4" d="M9.8,7.5c0.5-2.2,2.6-3.9,4.8-3.9h398.2c2.2,0,4.3,1.8,4.8,3.9l4.4,23.2c0.4,2.2,0.8,5.7,0.8,7.9v20.2
				c0,2.2-0.2,5.8-0.4,8l-4.2,42.3c-0.2,2.2-0.8,4.3-1.3,4.6s-2.7,0.6-4.9,0.6H13.7c-2.2,0-4.1-0.3-4.2-0.6
				c-0.1-0.4-0.4-2.4-0.7-4.6l-5-43.2c-0.3-2.2-0.5-5.8-0.5-8V41.5c0-2.2,0.4-5.8,0.8-7.9L9.8,7.5z"/>
		</g>
		<g id="Inner_Outline">
			<path fill="#2F5160" d="M16.7,12.7c0.3-2.2,2.4-4,4.6-4h387.3c2.2,0,4.2,1.8,4.4,4l2.9,26.6c0.2,2.2,0.4,5.8,0.4,8v16.3
				c0,2.2-0.2,5.8-0.4,8l-3.4,30.4c-0.2,2.2-2.2,4-4.4,4H20.3c-2.2,0-4.2-1.8-4.4-4l-2.9-26.6c-0.2-2.2-0.4-5.8-0.4-8V46.6
				c0-2.2,0.3-5.8,0.6-8L16.7,12.7z"/>
		</g>
		<g id="Body_Face">
			<path fill="#578DB4" d="M18.7,13.6c0.3-2.2,2.4-4,4.6-4h383.6c2.2,0,4.2,1.8,4.4,4l2.9,26c0.2,2.2,0.4,5.8,0.4,8v15.9
				c0,2.2-0.2,5.8-0.4,8l-3.4,29.8c-0.2,2.2-2.2,4-4.4,4H22.4c-2.2,0-4.2-1.8-4.4-4l-2.9-26c-0.2-2.2-0.4-5.8-0.4-8V47
				c0-2.2,0.3-5.8,0.6-8L18.7,13.6z"/>
		</g>
	</g>
	<g id="Details">
		<g id="Vents">
			<g id="Second_Row">
				<linearGradient id="SVGID_1_" gradientUnits="userSpaceOnUse" x1="17.8918" y1="77.1175" x2="38.72" y2="55.8386">
					<stop  offset="0" style="stop-color:#3A4141"/>
					<stop  offset="1" style="stop-color:#000000"/>
				</linearGradient>
				<path fill="url(#SVGID_1_)" stroke="#1C535E" stroke-width="0.2" d="M33.7,74.4c0,1.7-1.4,3-3,3l0,0c-1.7,0-3-1.4-3-3V53.8
					c0-1.7,1.4-3,3-3l0,0c1.7,0,3,1.4,3,3V74.4z"/>
				<linearGradient id="SVGID_2_" gradientUnits="userSpaceOnUse" x1="27.0754" y1="77.1175" x2="47.9037" y2="55.8386">
					<stop  offset="0" style="stop-color:#3A4141"/>
					<stop  offset="1" style="stop-color:#000000"/>
				</linearGradient>
				<path fill="url(#SVGID_2_)" stroke="#1C535E" stroke-width="0.2" d="M42.8,74.4c0,1.7-1.4,3-3,3l0,0c-1.7,0-3-1.4-3-3V53.8
					c0-1.7,1.4-3,3-3l0,0c1.7,0,3,1.4,3,3V74.4z"/>
				<linearGradient id="SVGID_3_" gradientUnits="userSpaceOnUse" x1="36.2596" y1="77.1175" x2="57.0879" y2="55.8386">
					<stop  offset="0" style="stop-color:#3A4141"/>
					<stop  offset="1" style="stop-color:#000000"/>
				</linearGradient>
				<path fill="url(#SVGID_3_)" stroke="#1C535E" stroke-width="0.2" d="M52,74.4c0,1.7-1.4,3-3,3l0,0c-1.7,0-3-1.4-3-3V53.8
					c0-1.7,1.4-3,3-3l0,0c1.7,0,3,1.4,3,3V74.4z"/>
				<linearGradient id="SVGID_4_" gradientUnits="userSpaceOnUse" x1="45.4433" y1="77.1175" x2="66.2716" y2="55.8386">
					<stop  offset="0" style="stop-color:#3A4141"/>
					<stop  offset="1" style="stop-color:#000000"/>
				</linearGradient>
				<path fill="url(#SVGID_4_)" stroke="#1C535E" stroke-width="0.2" d="M61.2,74.4c0,1.7-1.4,3-3,3l0,0c-1.7,0-3-1.4-3-3V53.8
					c0-1.7,1.4-3,3-3l0,0c1.7,0,3,1.4,3,3V74.4z"/>
				<linearGradient id="SVGID_5_" gradientUnits="userSpaceOnUse" x1="54.6269" y1="77.1175" x2="75.4552" y2="55.8386">
					<stop  offset="0" style="stop-color:#3A4141"/>
					<stop  offset="1" style="stop-color:#000000"/>
				</linearGradient>
				<path fill="url(#SVGID_5_)" stroke="#1C535E" stroke-width="0.2" d="M70.4,74.4c0,1.7-1.4,3-3,3l0,0c-1.7,0-3-1.4-3-3V53.8
					c0-1.7,1.4-3,3-3l0,0c1.7,0,3,1.4,3,3V74.4z"/>
				<linearGradient id="SVGID_6_" gradientUnits="userSpaceOnUse" x1="63.8106" y1="77.1175" x2="84.6389" y2="55.8386">
					<stop  offset="0" style="stop-color:#3A4141"/>
					<stop  offset="1" style="stop-color:#000000"/>
				</linearGradient>
				<path fill="url(#SVGID_6_)" stroke="#1C535E" stroke-width="0.2" d="M79.6,74.4c0,1.7-1.4,3-3,3l0,0c-1.7,0-3-1.4-3-3V53.8
					c0-1.7,1.4-3,3-3l0,0c1.7,0,3,1.4,3,3V74.4z"/>
				<linearGradient id="SVGID_7_" gradientUnits="userSpaceOnUse" x1="72.9948" y1="77.1175" x2="93.8231" y2="55.8386">
					<stop  offset="0" style="stop-color:#3A4141"/>
					<stop  offset="1" style="stop-color:#000000"/>
				</linearGradient>
				<path fill="url(#SVGID_7_)" stroke="#1C535E" stroke-width="0.2" d="M88.8,74.4c0,1.7-1.4,3-3,3l0,0c-1.7,0-3-1.4-3-3V53.8
					c0-1.7,1.4-3,3-3l0,0c1.7,0,3,1.4,3,3V74.4z"/>
				<linearGradient id="SVGID_8_" gradientUnits="userSpaceOnUse" x1="82.1785" y1="77.1175" x2="103.0067" y2="55.8386">
					<stop  offset="0" style="stop-color:#3A4141"/>
					<stop  offset="1" style="stop-color:#000000"/>
				</linearGradient>
				<path fill="url(#SVGID_8_)" stroke="#1C535E" stroke-width="0.2" d="M97.9,74.4c0,1.7-1.4,3-3,3l0,0c-1.7,0-3-1.4-3-3V53.8
					c0-1.7,1.4-3,3-3l0,0c1.7,0,3,1.4,3,3V74.4z"/>
				<linearGradient id="SVGID_9_" gradientUnits="userSpaceOnUse" x1="91.3621" y1="77.1175" x2="112.1904" y2="55.8386">
					<stop  offset="0" style="stop-color:#3A4141"/>
					<stop  offset="1" style="stop-color:#000000"/>
				</linearGradient>
				<path fill="url(#SVGID_9_)" stroke="#1C535E" stroke-width="0.2" d="M107.1,74.4c0,1.7-1.4,3-3,3l0,0c-1.7,0-3-1.4-3-3V53.8
					c0-1.7,1.4-3,3-3l0,0c1.7,0,3,1.4,3,3V74.4z"/>
				<linearGradient id="SVGID_10_" gradientUnits="userSpaceOnUse" x1="100.5458" y1="77.1175" x2="121.3741" y2="55.8386">
					<stop  offset="0" style="stop-color:#3A4141"/>
					<stop  offset="1" style="stop-color:#000000"/>
				</linearGradient>
				<path fill="url(#SVGID_10_)" stroke="#1C535E" stroke-width="0.2" d="M116.3,74.4c0,1.7-1.4,3-3,3l0,0c-1.7,0-3-1.4-3-3V53.8
					c0-1.7,1.4-3,3-3l0,0c1.7,0,3,1.4,3,3V74.4z"/>
				<linearGradient id="SVGID_11_" gradientUnits="userSpaceOnUse" x1="109.73" y1="77.1175" x2="130.5583" y2="55.8386">
					<stop  offset="0" style="stop-color:#3A4141"/>
					<stop  offset="1" style="stop-color:#000000"/>
				</linearGradient>
				<path fill="url(#SVGID_11_)" stroke="#1C535E" stroke-width="0.2" d="M125.5,74.4c0,1.7-1.4,3-3,3l0,0c-1.7,0-3-1.4-3-3V53.8
					c0-1.7,1.4-3,3-3l0,0c1.7,0,3,1.4,3,3V74.4z"/>
				<linearGradient id="SVGID_12_" gradientUnits="userSpaceOnUse" x1="118.9137" y1="77.1175" x2="139.7419" y2="55.8386">
					<stop  offset="0" style="stop-color:#3A4141"/>
					<stop  offset="1" style="stop-color:#000000"/>
				</linearGradient>
				<path fill="url(#SVGID_12_)" stroke="#1C535E" stroke-width="0.2" d="M134.7,74.4c0,1.7-1.4,3-3,3l0,0c-1.7,0-3-1.4-3-3V53.8
					c0-1.7,1.4-3,3-3l0,0c1.7,0,3,1.4,3,3V74.4z"/>
				<linearGradient id="SVGID_13_" gradientUnits="userSpaceOnUse" x1="128.0973" y1="77.1175" x2="148.9256" y2="55.8386">
					<stop  offset="0" style="stop-color:#3A4141"/>
					<stop  offset="1" style="stop-color:#000000"/>
				</linearGradient>
				<path fill="url(#SVGID_13_)" stroke="#1C535E" stroke-width="0.2" d="M143.9,74.4c0,1.7-1.4,3-3,3l0,0c-1.7,0-3-1.4-3-3V53.8
					c0-1.7,1.4-3,3-3l0,0c1.7,0,3,1.4,3,3V74.4z"/>
				<linearGradient id="SVGID_14_" gradientUnits="userSpaceOnUse" x1="137.281" y1="77.1175" x2="158.1093" y2="55.8386">
					<stop  offset="0" style="stop-color:#3A4141"/>
					<stop  offset="1" style="stop-color:#000000"/>
				</linearGradient>
				<path fill="url(#SVGID_14_)" stroke="#1C535E" stroke-width="0.2" d="M153,74.4c0,1.7-1.4,3-3,3l0,0c-1.7,0-3-1.4-3-3V53.8
					c0-1.7,1.4-3,3-3l0,0c1.7,0,3,1.4,3,3V74.4z"/>
			</g>
			<g id="First_Row">
				<linearGradient id="SVGID_15_" gradientUnits="userSpaceOnUse" x1="17.8918" y1="46.8923" x2="38.72" y2="25.6134">
					<stop  offset="0" style="stop-color:#3A4141"/>
					<stop  offset="1" style="stop-color:#000000"/>
				</linearGradient>
				<path fill="url(#SVGID_15_)" stroke="#1C535E" stroke-width="0.2" d="M33.7,44.2c0,1.7-1.4,3-3,3l0,0c-1.7,0-3-1.4-3-3V23.6
					c0-1.7,1.4-3,3-3l0,0c1.7,0,3,1.4,3,3V44.2z"/>
				<linearGradient id="SVGID_16_" gradientUnits="userSpaceOnUse" x1="27.0754" y1="46.8923" x2="47.9037" y2="25.6134">
					<stop  offset="0" style="stop-color:#3A4141"/>
					<stop  offset="1" style="stop-color:#000000"/>
				</linearGradient>
				<path fill="url(#SVGID_16_)" stroke="#1C535E" stroke-width="0.2" d="M42.8,44.2c0,1.7-1.4,3-3,3l0,0c-1.7,0-3-1.4-3-3V23.6
					c0-1.7,1.4-3,3-3l0,0c1.7,0,3,1.4,3,3V44.2z"/>
				<linearGradient id="SVGID_17_" gradientUnits="userSpaceOnUse" x1="36.2596" y1="46.8923" x2="57.0879" y2="25.6134">
					<stop  offset="0" style="stop-color:#3A4141"/>
					<stop  offset="1" style="stop-color:#000000"/>
				</linearGradient>
				<path fill="url(#SVGID_17_)" stroke="#1C535E" stroke-width="0.2" d="M52,44.2c0,1.7-1.4,3-3,3l0,0c-1.7,0-3-1.4-3-3V23.6
					c0-1.7,1.4-3,3-3l0,0c1.7,0,3,1.4,3,3V44.2z"/>
				<linearGradient id="SVGID_18_" gradientUnits="userSpaceOnUse" x1="45.4433" y1="46.8923" x2="66.2716" y2="25.6134">
					<stop  offset="0" style="stop-color:#3A4141"/>
					<stop  offset="1" style="stop-color:#000000"/>
				</linearGradient>
				<path fill="url(#SVGID_18_)" stroke="#1C535E" stroke-width="0.2" d="M61.2,44.2c0,1.7-1.4,3-3,3l0,0c-1.7,0-3-1.4-3-3V23.6
					c0-1.7,1.4-3,3-3l0,0c1.7,0,3,1.4,3,3V44.2z"/>
				<linearGradient id="SVGID_19_" gradientUnits="userSpaceOnUse" x1="54.6269" y1="46.8923" x2="75.4552" y2="25.6134">
					<stop  offset="0" style="stop-color:#3A4141"/>
					<stop  offset="1" style="stop-color:#000000"/>
				</linearGradient>
				<path fill="url(#SVGID_19_)" stroke="#1C535E" stroke-width="0.2" d="M70.4,44.2c0,1.7-1.4,3-3,3l0,0c-1.7,0-3-1.4-3-3V23.6
					c0-1.7,1.4-3,3-3l0,0c1.7,0,3,1.4,3,3V44.2z"/>
				<linearGradient id="SVGID_20_" gradientUnits="userSpaceOnUse" x1="63.8106" y1="46.8923" x2="84.6389" y2="25.6134">
					<stop  offset="0" style="stop-color:#3A4141"/>
					<stop  offset="1" style="stop-color:#000000"/>
				</linearGradient>
				<path fill="url(#SVGID_20_)" stroke="#1C535E" stroke-width="0.2" d="M79.6,44.2c0,1.7-1.4,3-3,3l0,0c-1.7,0-3-1.4-3-3V23.6
					c0-1.7,1.4-3,3-3l0,0c1.7,0,3,1.4,3,3V44.2z"/>
				<linearGradient id="SVGID_21_" gradientUnits="userSpaceOnUse" x1="72.9948" y1="46.8923" x2="93.8231" y2="25.6134">
					<stop  offset="0" style="stop-color:#3A4141"/>
					<stop  offset="1" style="stop-color:#000000"/>
				</linearGradient>
				<path fill="url(#SVGID_21_)" stroke="#1C535E" stroke-width="0.2" d="M88.8,44.2c0,1.7-1.4,3-3,3l0,0c-1.7,0-3-1.4-3-3V23.6
					c0-1.7,1.4-3,3-3l0,0c1.7,0,3,1.4,3,3V44.2z"/>
				<linearGradient id="SVGID_22_" gradientUnits="userSpaceOnUse" x1="82.1785" y1="46.8923" x2="103.0067" y2="25.6134">
					<stop  offset="0" style="stop-color:#3A4141"/>
					<stop  offset="1" style="stop-color:#000000"/>
				</linearGradient>
				<path fill="url(#SVGID_22_)" stroke="#1C535E" stroke-width="0.2" d="M97.9,44.2c0,1.7-1.4,3-3,3l0,0c-1.7,0-3-1.4-3-3V23.6
					c0-1.7,1.4-3,3-3l0,0c1.7,0,3,1.4,3,3V44.2z"/>
				<linearGradient id="SVGID_23_" gradientUnits="userSpaceOnUse" x1="91.3621" y1="46.8923" x2="112.1904" y2="25.6134">
					<stop  offset="0" style="stop-color:#3A4141"/>
					<stop  offset="1" style="stop-color:#000000"/>
				</linearGradient>
				<path fill="url(#SVGID_23_)" stroke="#1C535E" stroke-width="0.2" d="M107.1,44.2c0,1.7-1.4,3-3,3l0,0c-1.7,0-3-1.4-3-3V23.6
					c0-1.7,1.4-3,3-3l0,0c1.7,0,3,1.4,3,3V44.2z"/>
				<linearGradient id="SVGID_24_" gradientUnits="userSpaceOnUse" x1="100.5458" y1="46.8923" x2="121.3741" y2="25.6134">
					<stop  offset="0" style="stop-color:#3A4141"/>
					<stop  offset="1" style="stop-color:#000000"/>
				</linearGradient>
				<path fill="url(#SVGID_24_)" stroke="#1C535E" stroke-width="0.2" d="M116.3,44.2c0,1.7-1.4,3-3,3l0,0c-1.7,0-3-1.4-3-3V23.6
					c0-1.7,1.4-3,3-3l0,0c1.7,0,3,1.4,3,3V44.2z"/>
				<linearGradient id="SVGID_25_" gradientUnits="userSpaceOnUse" x1="109.73" y1="46.8923" x2="130.5583" y2="25.6134">
					<stop  offset="0" style="stop-color:#3A4141"/>
					<stop  offset="1" style="stop-color:#000000"/>
				</linearGradient>
				<path fill="url(#SVGID_25_)" stroke="#1C535E" stroke-width="0.2" d="M125.5,44.2c0,1.7-1.4,3-3,3l0,0c-1.7,0-3-1.4-3-3V23.6
					c0-1.7,1.4-3,3-3l0,0c1.7,0,3,1.4,3,3V44.2z"/>
				<linearGradient id="SVGID_26_" gradientUnits="userSpaceOnUse" x1="118.9137" y1="46.8923" x2="139.7419" y2="25.6134">
					<stop  offset="0" style="stop-color:#3A4141"/>
					<stop  offset="1" style="stop-color:#000000"/>
				</linearGradient>
				<path fill="url(#SVGID_26_)" stroke="#1C535E" stroke-width="0.2" d="M134.7,44.2c0,1.7-1.4,3-3,3l0,0c-1.7,0-3-1.4-3-3V23.6
					c0-1.7,1.4-3,3-3l0,0c1.7,0,3,1.4,3,3V44.2z"/>
				<linearGradient id="SVGID_27_" gradientUnits="userSpaceOnUse" x1="128.0973" y1="46.8923" x2="148.9256" y2="25.6134">
					<stop  offset="0" style="stop-color:#3A4141"/>
					<stop  offset="1" style="stop-color:#000000"/>
				</linearGradient>
				<path fill="url(#SVGID_27_)" stroke="#1C535E" stroke-width="0.2" d="M143.9,44.2c0,1.7-1.4,3-3,3l0,0c-1.7,0-3-1.4-3-3V23.6
					c0-1.7,1.4-3,3-3l0,0c1.7,0,3,1.4,3,3V44.2z"/>
				<linearGradient id="SVGID_28_" gradientUnits="userSpaceOnUse" x1="137.281" y1="46.8923" x2="158.1093" y2="25.6134">
					<stop  offset="0" style="stop-color:#3A4141"/>
					<stop  offset="1" style="stop-color:#000000"/>
				</linearGradient>
				<path fill="url(#SVGID_28_)" stroke="#1C535E" stroke-width="0.2" d="M153,44.2c0,1.7-1.4,3-3,3l0,0c-1.7,0-3-1.4-3-3V23.6
					c0-1.7,1.4-3,3-3l0,0c1.7,0,3,1.4,3,3V44.2z"/>
			</g>
		</g>
		<g>
			<path fill="#FFFFFF" d="M265.6,74.5l1.2-6.9h2.4c0.4,0,0.7,0.1,0.9,0.2s0.4,0.3,0.5,0.6c0.1,0.3,0.2,0.6,0.2,1
				c0,0.5-0.1,0.9-0.3,1.3c-0.2,0.4-0.5,0.7-0.9,0.9s-0.8,0.2-1.3,0.2h-1.4l-0.5,2.8H265.6z M267,70.9h1.2c0.5,0,0.8-0.1,1-0.2
				c0.2-0.1,0.4-0.3,0.6-0.6c0.2-0.3,0.2-0.6,0.2-0.9c0-0.2,0-0.4-0.1-0.6s-0.2-0.2-0.3-0.3s-0.4-0.1-0.7-0.1h-1.4L267,70.9z"/>
			<path fill="#FFFFFF" d="M273.5,73.9c-0.3,0.3-0.5,0.5-0.7,0.6c-0.2,0.1-0.5,0.2-0.7,0.2c-0.4,0-0.7-0.1-0.9-0.4s-0.4-0.6-0.4-1.1
				c0-0.3,0.1-0.6,0.2-0.8c0.1-0.2,0.3-0.4,0.6-0.5c0.3-0.1,0.6-0.2,1.1-0.2c0.4,0,0.7,0,0.8-0.1s0.3-0.1,0.4-0.1
				c0.1-0.2,0.1-0.4,0.1-0.6c0-0.2-0.1-0.4-0.2-0.5c-0.2-0.1-0.4-0.2-0.7-0.2c-0.6,0-1,0.3-1.2,0.9l-0.7-0.1c0.3-1,0.9-1.5,1.9-1.5
				c0.5,0,0.9,0.1,1.1,0.4c0.3,0.3,0.4,0.6,0.4,1c0,0.3,0,0.6-0.1,0.9l-0.3,1.2c-0.1,0.4-0.1,0.7-0.1,1c0,0.2,0,0.4,0.1,0.7h-0.7
				C273.5,74.3,273.5,74.1,273.5,73.9z M273.8,72c-0.2,0.1-0.5,0.1-0.9,0.2c-0.4,0-0.7,0.1-0.9,0.2c-0.2,0.1-0.3,0.2-0.4,0.3
				c-0.1,0.1-0.1,0.3-0.1,0.5c0,0.3,0.1,0.5,0.2,0.6c0.1,0.1,0.3,0.2,0.6,0.2c0.2,0,0.4-0.1,0.7-0.2c0.2-0.1,0.4-0.3,0.5-0.6
				C273.6,72.9,273.7,72.5,273.8,72z"/>
			<path fill="#FFFFFF" d="M278,72.7l0.7,0.1c-0.2,0.6-0.4,1.1-0.8,1.4c-0.3,0.3-0.7,0.5-1.1,0.5c-0.4,0-0.8-0.2-1.1-0.5
				s-0.4-0.8-0.4-1.5c0-0.6,0.1-1.2,0.3-1.7s0.5-0.9,0.8-1.1c0.3-0.2,0.7-0.4,1.1-0.4c0.4,0,0.8,0.1,1,0.4c0.3,0.3,0.4,0.7,0.4,1.2
				l-0.7,0.1c0-0.3-0.1-0.6-0.2-0.8c-0.2-0.2-0.3-0.3-0.6-0.3c-0.2,0-0.5,0.1-0.7,0.2s-0.4,0.5-0.5,0.9s-0.2,0.9-0.2,1.5
				c0,0.4,0.1,0.7,0.2,0.9c0.2,0.2,0.3,0.3,0.6,0.3c0.2,0,0.4-0.1,0.7-0.3C277.7,73.4,277.8,73.1,278,72.7z"/>
			<path fill="#FFFFFF" d="M279.1,74.5l1.2-6.9h0.7l-0.7,4.3l2-2.4h0.9l-1.8,1.9l1.1,3.1h-0.8l-0.8-2.6l-0.8,0.9l-0.3,1.7H279.1z"/>
			<path fill="#FFFFFF" d="M286.1,72.8l0.7,0.1c-0.1,0.5-0.4,0.9-0.8,1.3c-0.3,0.3-0.7,0.5-1.1,0.5c-0.3,0-0.6-0.1-0.8-0.2
				c-0.2-0.2-0.4-0.4-0.6-0.7c-0.1-0.3-0.2-0.7-0.2-1.2c0-0.6,0.1-1.1,0.3-1.6s0.5-0.9,0.8-1.1c0.3-0.2,0.7-0.4,1-0.4
				c0.5,0,0.9,0.2,1.2,0.5c0.3,0.4,0.4,0.9,0.4,1.5c0,0.2,0,0.5-0.1,0.8h-3c0,0.1,0,0.2,0,0.3c0,0.5,0.1,0.8,0.3,1.1
				c0.2,0.2,0.4,0.4,0.6,0.4c0.2,0,0.5-0.1,0.7-0.3C285.8,73.4,285.9,73.2,286.1,72.8z M284,71.6h2.3v-0.2c0-0.4-0.1-0.8-0.3-1
				c-0.2-0.2-0.4-0.3-0.7-0.3c-0.3,0-0.6,0.1-0.8,0.4S284.1,71.1,284,71.6z"/>
			<path fill="#FFFFFF" d="M289,73.8l-0.1,0.7c-0.2,0.1-0.3,0.1-0.5,0.1c-0.3,0-0.5-0.1-0.6-0.2c-0.1-0.1-0.2-0.3-0.2-0.6
				c0-0.1,0-0.4,0.1-0.8l0.5-2.9h-0.6l0.1-0.7h0.6l0.2-1.2l0.8-0.6l-0.3,1.8h0.7l-0.1,0.7h-0.7l-0.5,2.8c-0.1,0.4-0.1,0.6-0.1,0.6
				c0,0.1,0,0.2,0.1,0.2s0.1,0.1,0.2,0.1C288.8,73.9,288.9,73.8,289,73.8z"/>
			<path fill="#FFFFFF" d="M293.2,74.5l1-6.1h-1.9l0.1-0.8h4.5l-0.1,0.8H295l-1,6.1H293.2z"/>
			<path fill="#FFFFFF" d="M296.2,74.5l0.9-5h0.6l-0.2,1c0.4-0.8,0.8-1.1,1.2-1.1c0.1,0,0.3,0.1,0.5,0.2l-0.3,0.8
				c-0.1-0.1-0.3-0.2-0.4-0.2c-0.3,0-0.5,0.2-0.8,0.5s-0.5,0.9-0.6,1.8l-0.4,2H296.2z"/>
			<path fill="#FFFFFF" d="M301.5,73.9c-0.3,0.3-0.5,0.5-0.7,0.6c-0.2,0.1-0.5,0.2-0.7,0.2c-0.4,0-0.7-0.1-0.9-0.4s-0.4-0.6-0.4-1.1
				c0-0.3,0.1-0.6,0.2-0.8c0.1-0.2,0.3-0.4,0.6-0.5c0.3-0.1,0.6-0.2,1.1-0.2c0.4,0,0.7,0,0.8-0.1s0.3-0.1,0.4-0.1
				c0.1-0.2,0.1-0.4,0.1-0.6c0-0.2-0.1-0.4-0.2-0.5c-0.2-0.1-0.4-0.2-0.7-0.2c-0.6,0-1,0.3-1.2,0.9l-0.7-0.1c0.3-1,0.9-1.5,1.9-1.5
				c0.5,0,0.9,0.1,1.1,0.4c0.3,0.3,0.4,0.6,0.4,1c0,0.3,0,0.6-0.1,0.9l-0.3,1.2c-0.1,0.4-0.1,0.7-0.1,1c0,0.2,0,0.4,0.1,0.7h-0.7
				C301.6,74.3,301.6,74.1,301.5,73.9z M301.9,72c-0.2,0.1-0.5,0.1-0.9,0.2c-0.4,0-0.7,0.1-0.9,0.2c-0.2,0.1-0.3,0.2-0.4,0.3
				c-0.1,0.1-0.1,0.3-0.1,0.5c0,0.3,0.1,0.5,0.2,0.6c0.1,0.1,0.3,0.2,0.6,0.2c0.2,0,0.4-0.1,0.7-0.2c0.2-0.1,0.4-0.3,0.5-0.6
				C301.7,72.9,301.8,72.5,301.9,72z"/>
			<path fill="#FFFFFF" d="M306,72.7l0.7,0.1c-0.2,0.6-0.4,1.1-0.8,1.4c-0.3,0.3-0.7,0.5-1.1,0.5c-0.4,0-0.8-0.2-1.1-0.5
				s-0.4-0.8-0.4-1.5c0-0.6,0.1-1.2,0.3-1.7s0.5-0.9,0.8-1.1c0.3-0.2,0.7-0.4,1.1-0.4c0.4,0,0.8,0.1,1,0.4c0.3,0.3,0.4,0.7,0.4,1.2
				l-0.7,0.1c0-0.3-0.1-0.6-0.2-0.8c-0.2-0.2-0.3-0.3-0.6-0.3c-0.2,0-0.5,0.1-0.7,0.2s-0.4,0.5-0.5,0.9s-0.2,0.9-0.2,1.5
				c0,0.4,0.1,0.7,0.2,0.9c0.2,0.2,0.3,0.3,0.6,0.3c0.2,0,0.4-0.1,0.7-0.3C305.7,73.4,305.9,73.1,306,72.7z"/>
			<path fill="#FFFFFF" d="M310.2,72.8l0.7,0.1c-0.1,0.5-0.4,0.9-0.8,1.3c-0.3,0.3-0.7,0.5-1.1,0.5c-0.3,0-0.6-0.1-0.8-0.2
				c-0.2-0.2-0.4-0.4-0.6-0.7c-0.1-0.3-0.2-0.7-0.2-1.2c0-0.6,0.1-1.1,0.3-1.6s0.5-0.9,0.8-1.1c0.3-0.2,0.7-0.4,1-0.4
				c0.5,0,0.9,0.2,1.2,0.5c0.3,0.4,0.4,0.9,0.4,1.5c0,0.2,0,0.5-0.1,0.8h-3c0,0.1,0,0.2,0,0.3c0,0.5,0.1,0.8,0.3,1.1
				c0.2,0.2,0.4,0.4,0.6,0.4c0.2,0,0.5-0.1,0.7-0.3C309.8,73.4,310,73.2,310.2,72.8z M308.1,71.6h2.3v-0.2c0-0.4-0.1-0.8-0.3-1
				c-0.2-0.2-0.4-0.3-0.7-0.3c-0.3,0-0.6,0.1-0.8,0.4S308.2,71.1,308.1,71.6z"/>
			<path fill="#FFFFFF" d="M311.5,74.5l0.9-5h0.6l-0.2,1c0.4-0.8,0.8-1.1,1.2-1.1c0.1,0,0.3,0.1,0.5,0.2l-0.3,0.8
				c-0.1-0.1-0.3-0.2-0.4-0.2c-0.3,0-0.5,0.2-0.8,0.5s-0.5,0.9-0.6,1.8l-0.4,2H311.5z"/>
			<path fill="#FFFFFF" d="M319.4,71.8l0.1-0.8h2.5l-0.5,2.8c-0.3,0.3-0.7,0.5-1.1,0.6s-0.8,0.2-1.2,0.2c-0.8,0-1.4-0.3-1.8-0.8
				c-0.4-0.5-0.6-1.2-0.6-2.1c0-0.8,0.2-1.6,0.5-2.3c0.3-0.7,0.7-1.2,1.1-1.5c0.5-0.3,1-0.5,1.5-0.5c0.7,0,1.2,0.2,1.6,0.7
				c0.3,0.3,0.5,0.8,0.6,1.5l-0.7,0.1c-0.1-0.5-0.3-0.9-0.5-1.1s-0.6-0.4-1-0.4c-0.4,0-0.8,0.1-1.1,0.4c-0.4,0.3-0.6,0.7-0.9,1.2
				c-0.2,0.5-0.3,1.2-0.3,1.9c0,0.7,0.1,1.2,0.4,1.6c0.3,0.3,0.7,0.5,1.2,0.5c0.5,0,1-0.2,1.6-0.6l0.3-1.5H319.4z"/>
			<path fill="#FFFFFF" d="M325.5,72.8l0.7,0.1c-0.1,0.5-0.4,0.9-0.8,1.3c-0.3,0.3-0.7,0.5-1.1,0.5c-0.3,0-0.6-0.1-0.8-0.2
				c-0.2-0.2-0.4-0.4-0.6-0.7c-0.1-0.3-0.2-0.7-0.2-1.2c0-0.6,0.1-1.1,0.3-1.6s0.5-0.9,0.8-1.1c0.3-0.2,0.7-0.4,1-0.4
				c0.5,0,0.9,0.2,1.2,0.5c0.3,0.4,0.4,0.9,0.4,1.5c0,0.2,0,0.5-0.1,0.8h-3c0,0.1,0,0.2,0,0.3c0,0.5,0.1,0.8,0.3,1.1
				c0.2,0.2,0.4,0.4,0.6,0.4c0.2,0,0.5-0.1,0.7-0.3C325.2,73.4,325.4,73.2,325.5,72.8z M323.5,71.6h2.3v-0.2c0-0.4-0.1-0.8-0.3-1
				c-0.2-0.2-0.4-0.3-0.7-0.3c-0.3,0-0.6,0.1-0.8,0.4S323.6,71.1,323.5,71.6z"/>
			<path fill="#FFFFFF" d="M326.9,74.5l0.9-5h0.6l-0.1,0.9c0.3-0.4,0.6-0.6,0.8-0.8c0.2-0.1,0.5-0.2,0.7-0.2c0.3,0,0.6,0.1,0.8,0.3
				c0.2,0.2,0.3,0.5,0.3,0.9c0,0.2,0,0.5-0.1,0.9l-0.5,3h-0.7l0.6-3.2c0.1-0.3,0.1-0.5,0.1-0.7c0-0.2,0-0.3-0.2-0.4
				c-0.1-0.1-0.2-0.1-0.4-0.1c-0.4,0-0.7,0.2-1,0.5c-0.3,0.3-0.5,0.9-0.6,1.6l-0.4,2.3H326.9z"/>
			<path fill="#FFFFFF" d="M334.3,72.8l0.7,0.1c-0.1,0.5-0.4,0.9-0.8,1.3c-0.3,0.3-0.7,0.5-1.1,0.5c-0.3,0-0.6-0.1-0.8-0.2
				c-0.2-0.2-0.4-0.4-0.6-0.7c-0.1-0.3-0.2-0.7-0.2-1.2c0-0.6,0.1-1.1,0.3-1.6s0.5-0.9,0.8-1.1c0.3-0.2,0.7-0.4,1-0.4
				c0.5,0,0.9,0.2,1.2,0.5c0.3,0.4,0.4,0.9,0.4,1.5c0,0.2,0,0.5-0.1,0.8h-3c0,0.1,0,0.2,0,0.3c0,0.5,0.1,0.8,0.3,1.1
				c0.2,0.2,0.4,0.4,0.6,0.4c0.2,0,0.5-0.1,0.7-0.3C334,73.4,334.2,73.2,334.3,72.8z M332.3,71.6h2.3v-0.2c0-0.4-0.1-0.8-0.3-1
				c-0.2-0.2-0.4-0.3-0.7-0.3c-0.3,0-0.6,0.1-0.8,0.4S332.4,71.1,332.3,71.6z"/>
			<path fill="#FFFFFF" d="M335.7,74.5l0.9-5h0.6l-0.2,1c0.4-0.8,0.8-1.1,1.2-1.1c0.1,0,0.3,0.1,0.5,0.2l-0.3,0.8
				c-0.1-0.1-0.3-0.2-0.4-0.2c-0.3,0-0.5,0.2-0.8,0.5s-0.5,0.9-0.6,1.8l-0.4,2H335.7z"/>
			<path fill="#FFFFFF" d="M338.3,74.5l0.9-5h0.7l-0.9,5H338.3z M339.4,68.6l0.2-1h0.7l-0.2,1H339.4z"/>
			<path fill="#FFFFFF" d="M343,72.7l0.7,0.1c-0.2,0.6-0.4,1.1-0.8,1.4c-0.3,0.3-0.7,0.5-1.1,0.5c-0.4,0-0.8-0.2-1.1-0.5
				s-0.4-0.8-0.4-1.5c0-0.6,0.1-1.2,0.3-1.7s0.5-0.9,0.8-1.1c0.3-0.2,0.7-0.4,1.1-0.4c0.4,0,0.8,0.1,1,0.4c0.3,0.3,0.4,0.7,0.4,1.2
				l-0.7,0.1c0-0.3-0.1-0.6-0.2-0.8c-0.2-0.2-0.3-0.3-0.6-0.3c-0.2,0-0.5,0.1-0.7,0.2s-0.4,0.5-0.5,0.9s-0.2,0.9-0.2,1.5
				c0,0.4,0.1,0.7,0.2,0.9c0.2,0.2,0.3,0.3,0.6,0.3c0.2,0,0.4-0.1,0.7-0.3C342.7,73.4,342.8,73.1,343,72.7z"/>
			<path fill="#FFFFFF" d="M347.4,74.5l-0.4-6.9h0.8l0.1,3.4c0,0.7,0,1.3,0,1.8l0,0.5l0.7-1.7l1.7-4h0.8l0.2,4c0,0.5,0,1,0,1.7
				c0-0.2,0.1-0.4,0.2-0.7c0.2-0.5,0.3-0.9,0.4-1.1l1.6-3.9h0.8l-2.9,6.9h-0.8l-0.2-4.2c0-0.4,0-0.8,0-1.3c-0.2,0.5-0.3,0.8-0.4,1
				l-2,4.5H347.4z"/>
			<path fill="#FFFFFF" d="M353.7,74.5l0.9-5h0.7l-0.9,5H353.7z M354.7,68.6l0.2-1h0.7l-0.2,1H354.7z"/>
			<path fill="#FFFFFF" d="M355.5,74.5l0.9-5h0.6l-0.2,1c0.4-0.8,0.8-1.1,1.2-1.1c0.1,0,0.3,0.1,0.5,0.2l-0.3,0.8
				c-0.1-0.1-0.3-0.2-0.4-0.2c-0.3,0-0.5,0.2-0.8,0.5s-0.5,0.9-0.6,1.8l-0.4,2H355.5z"/>
			<path fill="#FFFFFF" d="M361.2,72.8l0.7,0.1c-0.1,0.5-0.4,0.9-0.8,1.3c-0.3,0.3-0.7,0.5-1.1,0.5c-0.3,0-0.6-0.1-0.8-0.2
				c-0.2-0.2-0.4-0.4-0.6-0.7c-0.1-0.3-0.2-0.7-0.2-1.2c0-0.6,0.1-1.1,0.3-1.6s0.5-0.9,0.8-1.1c0.3-0.2,0.7-0.4,1-0.4
				c0.5,0,0.9,0.2,1.2,0.5c0.3,0.4,0.4,0.9,0.4,1.5c0,0.2,0,0.5-0.1,0.8h-3c0,0.1,0,0.2,0,0.3c0,0.5,0.1,0.8,0.3,1.1
				c0.2,0.2,0.4,0.4,0.6,0.4c0.2,0,0.5-0.1,0.7-0.3C360.8,73.4,361,73.2,361.2,72.8z M359.1,71.6h2.3v-0.2c0-0.4-0.1-0.8-0.3-1
				c-0.2-0.2-0.4-0.3-0.7-0.3c-0.3,0-0.6,0.1-0.8,0.4S359.2,71.1,359.1,71.6z"/>
			<path fill="#FFFFFF" d="M362.5,74.5l1.2-6.9h0.7l-1.2,6.9H362.5z"/>
			<path fill="#FFFFFF" d="M367.3,72.8l0.7,0.1c-0.1,0.5-0.4,0.9-0.8,1.3c-0.3,0.3-0.7,0.5-1.1,0.5c-0.3,0-0.6-0.1-0.8-0.2
				c-0.2-0.2-0.4-0.4-0.6-0.7c-0.1-0.3-0.2-0.7-0.2-1.2c0-0.6,0.1-1.1,0.3-1.6s0.5-0.9,0.8-1.1c0.3-0.2,0.7-0.4,1-0.4
				c0.5,0,0.9,0.2,1.2,0.5c0.3,0.4,0.4,0.9,0.4,1.5c0,0.2,0,0.5-0.1,0.8h-3c0,0.1,0,0.2,0,0.3c0,0.5,0.1,0.8,0.3,1.1
				c0.2,0.2,0.4,0.4,0.6,0.4c0.2,0,0.5-0.1,0.7-0.3C367,73.4,367.2,73.2,367.3,72.8z M365.3,71.6h2.3v-0.2c0-0.4-0.1-0.8-0.3-1
				c-0.2-0.2-0.4-0.3-0.7-0.3c-0.3,0-0.6,0.1-0.8,0.4S365.4,71.1,365.3,71.6z"/>
			<path fill="#FFFFFF" d="M368.7,72.8l0.7-0.1c0,0.4,0.1,0.7,0.3,0.9c0.2,0.2,0.4,0.3,0.7,0.3c0.3,0,0.5-0.1,0.7-0.2
				c0.2-0.1,0.2-0.3,0.2-0.5c0-0.2-0.1-0.3-0.2-0.4c-0.1-0.1-0.3-0.3-0.7-0.5c-0.4-0.2-0.7-0.4-0.8-0.5c-0.1-0.1-0.2-0.3-0.3-0.4
				s-0.1-0.3-0.1-0.6c0-0.4,0.1-0.8,0.4-1c0.3-0.3,0.6-0.4,1.1-0.4c0.5,0,0.9,0.1,1.2,0.4c0.3,0.3,0.4,0.7,0.4,1.2l-0.7,0.1
				c0-0.3-0.1-0.6-0.3-0.7c-0.2-0.2-0.4-0.3-0.7-0.3c-0.2,0-0.4,0.1-0.6,0.2c-0.1,0.1-0.2,0.3-0.2,0.4c0,0.1,0,0.3,0.1,0.4
				c0.1,0.1,0.3,0.2,0.6,0.4c0.5,0.3,0.9,0.5,1,0.7c0.2,0.3,0.3,0.6,0.3,1c0,0.4-0.1,0.8-0.4,1.1c-0.3,0.3-0.7,0.4-1.2,0.4
				c-0.5,0-0.9-0.2-1.2-0.5C368.9,73.9,368.7,73.4,368.7,72.8L368.7,72.8z"/>
			<path fill="#FFFFFF" d="M372.7,72.8l0.7-0.1c0,0.4,0.1,0.7,0.3,0.9c0.2,0.2,0.4,0.3,0.7,0.3c0.3,0,0.5-0.1,0.7-0.2
				c0.2-0.1,0.2-0.3,0.2-0.5c0-0.2-0.1-0.3-0.2-0.4c-0.1-0.1-0.3-0.3-0.7-0.5c-0.4-0.2-0.7-0.4-0.8-0.5c-0.1-0.1-0.2-0.3-0.3-0.4
				s-0.1-0.3-0.1-0.6c0-0.4,0.1-0.8,0.4-1c0.3-0.3,0.6-0.4,1.1-0.4c0.5,0,0.9,0.1,1.2,0.4c0.3,0.3,0.4,0.7,0.4,1.2l-0.7,0.1
				c0-0.3-0.1-0.6-0.3-0.7c-0.2-0.2-0.4-0.3-0.7-0.3c-0.2,0-0.4,0.1-0.6,0.2c-0.1,0.1-0.2,0.3-0.2,0.4c0,0.1,0,0.3,0.1,0.4
				c0.1,0.1,0.3,0.2,0.6,0.4c0.5,0.3,0.9,0.5,1,0.7c0.2,0.3,0.3,0.6,0.3,1c0,0.4-0.1,0.8-0.4,1.1c-0.3,0.3-0.7,0.4-1.2,0.4
				c-0.5,0-0.9-0.2-1.2-0.5C372.8,73.9,372.7,73.4,372.7,72.8L372.7,72.8z"/>
			<path fill="#FFFFFF" d="M378.9,74.5l1.2-6.9h1.7c0.4,0,0.7,0,0.9,0.1c0.3,0.1,0.6,0.2,0.8,0.5c0.2,0.2,0.4,0.5,0.5,0.9
				c0.1,0.4,0.2,0.8,0.2,1.3c0,0.7-0.1,1.3-0.3,1.8c-0.2,0.5-0.5,1-0.8,1.3s-0.7,0.6-1.1,0.7c-0.3,0.1-0.7,0.2-1.1,0.2H378.9z
				 M379.8,73.7h0.9c0.4,0,0.8,0,1.1-0.1c0.3-0.1,0.6-0.3,0.8-0.5c0.2-0.3,0.4-0.6,0.6-1.1c0.2-0.5,0.3-1,0.3-1.6
				c0-0.5-0.1-0.9-0.2-1.3c-0.1-0.3-0.4-0.5-0.6-0.6c-0.2-0.1-0.5-0.1-0.9-0.1h-1L379.8,73.7z"/>
			<path fill="#FFFFFF" d="M387.5,72.8l0.7,0.1c-0.1,0.5-0.4,0.9-0.8,1.3c-0.3,0.3-0.7,0.5-1.1,0.5c-0.3,0-0.6-0.1-0.8-0.2
				c-0.2-0.2-0.4-0.4-0.6-0.7c-0.1-0.3-0.2-0.7-0.2-1.2c0-0.6,0.1-1.1,0.3-1.6s0.5-0.9,0.8-1.1c0.3-0.2,0.7-0.4,1-0.4
				c0.5,0,0.9,0.2,1.2,0.5c0.3,0.4,0.4,0.9,0.4,1.5c0,0.2,0,0.5-0.1,0.8h-3c0,0.1,0,0.2,0,0.3c0,0.5,0.1,0.8,0.3,1.1
				c0.2,0.2,0.4,0.4,0.6,0.4c0.2,0,0.5-0.1,0.7-0.3C387.2,73.4,387.4,73.2,387.5,72.8z M385.5,71.6h2.3v-0.2c0-0.4-0.1-0.8-0.3-1
				c-0.2-0.2-0.4-0.3-0.7-0.3c-0.3,0-0.6,0.1-0.8,0.4S385.6,71.1,385.5,71.6z"/>
			<path fill="#FFFFFF" d="M390,74.5l-0.7-5h0.7l0.4,2.8c0,0.3,0.1,0.8,0.1,1.5c0.1-0.4,0.3-0.8,0.5-1.2l1.4-3h0.7l-2.3,5H390z"/>
			<path fill="#FFFFFF" d="M392.9,74.5l0.9-5h0.7l-0.9,5H392.9z M393.9,68.6l0.2-1h0.7l-0.2,1H393.9z"/>
			<path fill="#FFFFFF" d="M397.5,72.7l0.7,0.1c-0.2,0.6-0.4,1.1-0.8,1.4c-0.3,0.3-0.7,0.5-1.1,0.5c-0.4,0-0.8-0.2-1.1-0.5
				s-0.4-0.8-0.4-1.5c0-0.6,0.1-1.2,0.3-1.7s0.5-0.9,0.8-1.1c0.3-0.2,0.7-0.4,1.1-0.4c0.4,0,0.8,0.1,1,0.4c0.3,0.3,0.4,0.7,0.4,1.2
				l-0.7,0.1c0-0.3-0.1-0.6-0.2-0.8c-0.2-0.2-0.3-0.3-0.6-0.3c-0.2,0-0.5,0.1-0.7,0.2s-0.4,0.5-0.5,0.9s-0.2,0.9-0.2,1.5
				c0,0.4,0.1,0.7,0.2,0.9c0.2,0.2,0.3,0.3,0.6,0.3c0.2,0,0.4-0.1,0.7-0.3C397.2,73.4,397.4,73.1,397.5,72.7z"/>
			<path fill="#FFFFFF" d="M401.6,72.8l0.7,0.1c-0.1,0.5-0.4,0.9-0.8,1.3c-0.3,0.3-0.7,0.5-1.1,0.5c-0.3,0-0.6-0.1-0.8-0.2
				c-0.2-0.2-0.4-0.4-0.6-0.7c-0.1-0.3-0.2-0.7-0.2-1.2c0-0.6,0.1-1.1,0.3-1.6s0.5-0.9,0.8-1.1c0.3-0.2,0.7-0.4,1-0.4
				c0.5,0,0.9,0.2,1.2,0.5c0.3,0.4,0.4,0.9,0.4,1.5c0,0.2,0,0.5-0.1,0.8h-3c0,0.1,0,0.2,0,0.3c0,0.5,0.1,0.8,0.3,1.1
				c0.2,0.2,0.4,0.4,0.6,0.4c0.2,0,0.5-0.1,0.7-0.3C401.3,73.4,401.5,73.2,401.6,72.8z M399.6,71.6h2.3v-0.2c0-0.4-0.1-0.8-0.3-1
				c-0.2-0.2-0.4-0.3-0.7-0.3c-0.3,0-0.6,0.1-0.8,0.4S399.7,71.1,399.6,71.6z"/>
		</g>
		<g id="Wireless_Icon">
			<g opacity="0.75">
				
					<use xlink:href="#RSS"  width="56" height="56" x="-28" y="-28" transform="matrix(0.2156 0.2134 0.2178 -0.22 395.3355 89.6375)" overflow="visible"/>
				
					<use xlink:href="#RSS"  width="56" height="56" x="-28" y="-28" transform="matrix(0.2156 0.2134 0.2178 -0.22 395.3212 89.7839)" overflow="visible"/>
			</g>
			<g opacity="0.75">
				
					<use xlink:href="#RSS"  width="56" height="56" x="-28" y="-28" transform="matrix(-0.22 0.2178 -0.2133 -0.2156 377.4128 89.8144)" overflow="visible"/>
				
					<use xlink:href="#RSS"  width="56" height="56" x="-28" y="-28" transform="matrix(-0.22 0.2178 -0.2133 -0.2156 377.4241 89.9605)" overflow="visible"/>
			</g>
		</g>
		<g id="Lights">
			<radialGradient id="SVGID_29_" cx="355.6773" cy="85.1347" r="27.6249" gradientUnits="userSpaceOnUse">
				<stop  offset="1.123600e-002" style="stop-color:#D4E05F"/>
				<stop  offset="0.5" style="stop-color:#D4E05F"/>
				<stop  offset="1" style="stop-color:#60873D"/>
			</radialGradient>
			<circle fill="url(#SVGID_29_)" stroke="#5A5B5D" cx="351.7" cy="89.8" r="8.7"/>
			<radialGradient id="SVGID_30_" cx="325.7671" cy="85.1347" r="27.6249" gradientUnits="userSpaceOnUse">
				<stop  offset="1.123600e-002" style="stop-color:#D4E05F"/>
				<stop  offset="0.5" style="stop-color:#D4E05F"/>
				<stop  offset="1" style="stop-color:#60873D"/>
			</radialGradient>
			<circle fill="url(#SVGID_30_)" stroke="#5A5B5D" cx="321.8" cy="89.8" r="8.7"/>
			<radialGradient id="SVGID_31_" cx="295.8577" cy="85.2261" r="27.6249" gradientUnits="userSpaceOnUse">
				<stop  offset="1.123600e-002" style="stop-color:#D4E05F"/>
				<stop  offset="0.5" style="stop-color:#D4E05F"/>
				<stop  offset="1" style="stop-color:#60873D"/>
			</radialGradient>
			<circle fill="url(#SVGID_31_)" stroke="#5A5B5D" cx="291.9" cy="89.9" r="8.7"/>
		</g>
	</g>
</g>
<g id="Generic_Wired_Device_Back">
	<g id="Body_copy">
		<polyline id="Bottom_1_" fill="#2F5160" points="31.6,113.6 48.2,119.4 94.4,119.4 127.8,117.2 306.9,117.2 338.9,119.1 
			384.7,119.1 396.7,115.2 401.8,114.6 401.8,113 		"/>
		<g id="Main_Body_1_">
			<path fill="#578DB4" d="M9.8,7.5c0.5-2.2,2.6-3.9,4.8-3.9h398.2c2.2,0,4.3,1.8,4.8,3.9l4.4,23.2c0.4,2.2,0.8,5.7,0.8,7.9v20.2
				c0,2.2-0.2,5.8-0.4,8l-4.2,42.3c-0.2,2.2-0.8,4.3-1.3,4.6s-2.7,0.6-4.9,0.6H13.7c-2.2,0-4.1-0.3-4.2-0.6
				c-0.1-0.4-0.4-2.4-0.7-4.6l-5-43.2c-0.3-2.2-0.5-5.8-0.5-8V41.5c0-2.2,0.4-5.8,0.8-7.9L9.8,7.5z"/>
		</g>
		<g id="Inner_Outline_1_">
			<path fill="#2F5160" d="M16.7,12.7c0.3-2.2,2.4-4,4.6-4h387.3c2.2,0,4.2,1.8,4.4,4l2.9,26.6c0.2,2.2,0.4,5.8,0.4,8v16.3
				c0,2.2-0.2,5.8-0.4,8l-3.4,30.4c-0.2,2.2-2.2,4-4.4,4H20.3c-2.2,0-4.2-1.8-4.4-4l-2.9-26.6c-0.2-2.2-0.4-5.8-0.4-8V46.6
				c0-2.2,0.3-5.8,0.6-8L16.7,12.7z"/>
		</g>
		<g id="Body_Face_1_">
			<path fill="#578DB4" d="M18.7,13.6c0.3-2.2,2.4-4,4.6-4h383.6c2.2,0,4.2,1.8,4.4,4l2.9,26c0.2,2.2,0.4,5.8,0.4,8v15.9
				c0,2.2-0.2,5.8-0.4,8l-3.4,29.8c-0.2,2.2-2.2,4-4.4,4H22.4c-2.2,0-4.2-1.8-4.4-4l-2.9-26c-0.2-2.2-0.4-5.8-0.4-8V47
				c0-2.2,0.3-5.8,0.6-8L18.7,13.6z"/>
		</g>
		<rect x="23.5" y="39" fill="#578DB4" stroke="#336667" stroke-miterlimit="10" width="383" height="61"/>
	</g>
	<g id="Details_1_">
		<g id="Power_Outlet">
			<linearGradient id="SVGID_32_" gradientUnits="userSpaceOnUse" x1="357.2438" y1="96.3506" x2="393.8048" y2="68.4947">
				<stop  offset="0" style="stop-color:#3A4141"/>
				<stop  offset="1" style="stop-color:#000000"/>
			</linearGradient>
			<rect x="363.4" y="62" fill="url(#SVGID_32_)" stroke="#4C5455" width="34" height="33.4"/>
			<linearGradient id="SVGID_33_" gradientUnits="userSpaceOnUse" x1="374.873" y1="88.3666" x2="383.5691" y2="73.8734">
				<stop  offset="0" style="stop-color:#3A4141"/>
				<stop  offset="1" style="stop-color:#000000"/>
			</linearGradient>
			<circle fill="url(#SVGID_33_)" stroke="#4C5455" cx="380" cy="79.8" r="12.7"/>
			<radialGradient id="SVGID_34_" cx="380.9558" cy="78.2287" r="3.057" gradientUnits="userSpaceOnUse">
				<stop  offset="0" style="stop-color:#FFFFFF"/>
				<stop  offset="1" style="stop-color:#AAB0B7"/>
			</radialGradient>
			<circle fill="url(#SVGID_34_)" cx="380.2" cy="79.6" r="3.6"/>
		</g>
		<g id="Power_Cord">
			<linearGradient id="SVGID_35_" gradientUnits="userSpaceOnUse" x1="382.2722" y1="78.8478" x2="391.4807" y2="77.0937">
				<stop  offset="1.123600e-002" style="stop-color:#414042"/>
				<stop  offset="0.5" style="stop-color:#8A8C8E"/>
				<stop  offset="1" style="stop-color:#383839"/>
			</linearGradient>
			<circle fill="url(#SVGID_35_)" stroke="#000000" cx="380.5" cy="79.2" r="11.6"/>
			<linearGradient id="SVGID_36_" gradientUnits="userSpaceOnUse" x1="374.2682" y1="89.6066" x2="395.5342" y2="65.2712">
				<stop  offset="1.123600e-002" style="stop-color:#414042"/>
				<stop  offset="1" style="stop-color:#8A8C8E"/>
			</linearGradient>
			<circle fill="url(#SVGID_36_)" stroke="#000000" stroke-width="0.25" cx="380.4" cy="82.6" r="11.9"/>
			<g>
				<circle stroke="#000000" stroke-width="0.25" cx="380.6" cy="82.8" r="10.9"/>
				<linearGradient id="SVGID_37_" gradientUnits="userSpaceOnUse" x1="370.2145" y1="83.0371" x2="391.0411" y2="83.0371">
					<stop  offset="1.123600e-002" style="stop-color:#414042"/>
					<stop  offset="1" style="stop-color:#8A8C8E"/>
				</linearGradient>
				<circle fill="url(#SVGID_37_)" stroke="#000000" stroke-width="0.25" cx="380.6" cy="83" r="10.4"/>
			</g>
			<g>
				<circle stroke="#000000" stroke-width="0.25" cx="380.5" cy="83.6" r="9.9"/>
				<linearGradient id="SVGID_38_" gradientUnits="userSpaceOnUse" x1="371.0523" y1="83.783" x2="389.985" y2="83.783">
					<stop  offset="1.123600e-002" style="stop-color:#414042"/>
					<stop  offset="1" style="stop-color:#8A8C8E"/>
				</linearGradient>
				<circle fill="url(#SVGID_38_)" stroke="#000000" stroke-width="0.25" cx="380.5" cy="83.8" r="9.5"/>
			</g>
			<g>
				<circle stroke="#000000" stroke-width="0.25" cx="380.6" cy="84" r="8.5"/>
				<linearGradient id="SVGID_39_" gradientUnits="userSpaceOnUse" x1="372.4243" y1="84.1921" x2="388.8326" y2="84.1921">
					<stop  offset="1.123600e-002" style="stop-color:#414042"/>
					<stop  offset="1" style="stop-color:#8A8C8E"/>
				</linearGradient>
				<circle fill="url(#SVGID_39_)" stroke="#000000" stroke-width="0.25" cx="380.6" cy="84.2" r="8.2"/>
			</g>
			<g>
				<circle stroke="#000000" stroke-width="0.25" cx="380.5" cy="85.4" r="7.1"/>
				<linearGradient id="SVGID_40_" gradientUnits="userSpaceOnUse" x1="373.663" y1="85.5862" x2="387.3364" y2="85.5862">
					<stop  offset="1.123600e-002" style="stop-color:#414042"/>
					<stop  offset="1" style="stop-color:#8A8C8E"/>
				</linearGradient>
				<circle fill="url(#SVGID_40_)" stroke="#000000" stroke-width="0.25" cx="380.5" cy="85.6" r="6.8"/>
			</g>
			<g>
				<linearGradient id="SVGID_41_" gradientUnits="userSpaceOnUse" x1="374.3745" y1="100.9413" x2="386.5553" y2="100.9413">
					<stop  offset="1.123600e-002" style="stop-color:#414042"/>
					<stop  offset="1" style="stop-color:#8A8C8E"/>
				</linearGradient>
				<path fill="url(#SVGID_41_)" stroke="#000000" stroke-width="0.25" d="M386.6,117.5c0,1.4-2.7,2.5-6.1,2.5l0,0
					c-3.4,0-6.1-1.1-6.1-2.5V84.4c0-1.4,2.7-2.5,6.1-2.5l0,0c3.4,0,6.1,1.1,6.1,2.5V117.5z"/>
				<linearGradient id="SVGID_42_" gradientUnits="userSpaceOnUse" x1="381.0422" y1="112.1566" x2="380.3842" y2="99.3733">
					<stop  offset="1.123600e-002" style="stop-color:#414042"/>
					<stop  offset="1" style="stop-color:#8A8C8E"/>
				</linearGradient>
				<path opacity="0.74" fill="url(#SVGID_42_)" d="M386.6,117.5c0,1.4-2.7,2.5-6.1,2.5l0,0c-3.4,0-6.1-1.1-6.1-2.5V84.4
					c0-1.4,2.7-2.5,6.1-2.5l0,0c3.4,0,6.1,1.1,6.1,2.5V117.5z"/>
			</g>
		</g>
		<g id="RJ-45_2_">
			
				<linearGradient id="Main_Body_Shadow_1_" gradientUnits="userSpaceOnUse" x1="5109.8525" y1="-3708.0793" x2="5109.8525" y2="-3824.9792" gradientTransform="matrix(0 -1 1 0 3799.9375 5180.2188)">
				<stop  offset="0" style="stop-color:#171D1E"/>
				<stop  offset="1" style="stop-color:#231F20"/>
			</linearGradient>
			<path id="Main_Body_Shadow" opacity="0.57" fill="url(#Main_Body_Shadow_1_)" d="M113.8,46.1c1.3,0,2.4,0.7,2.4,1.6V93
				c0,0.9-1.1,1.6-2.4,1.6H31c-1.3,0-2.4-0.7-2.4-1.6V47.7c0-0.9,1.1-1.6,2.4-1.6H113.8z"/>
			
				<linearGradient id="Main_Body_3_" gradientUnits="userSpaceOnUse" x1="5111.9146" y1="-3705.8772" x2="5111.9146" y2="-3822.7771" gradientTransform="matrix(0 -1 1 0 3799.9375 5180.2188)">
				<stop  offset="0" style="stop-color:#A1A9A7"/>
				<stop  offset="1" style="stop-color:#A8AFAE"/>
			</linearGradient>
			<path id="Main_Body_2_" fill="url(#Main_Body_3_)" d="M116,44c1.3,0,2.4,0.7,2.4,1.6V91c0,0.9-1.1,1.6-2.4,1.6H33.2
				c-1.3,0-2.4-0.7-2.4-1.6V45.6c0-0.9,1.1-1.6,2.4-1.6H116z"/>
			<path id="Left_Shadow" opacity="0.15" fill="#676868" d="M32.8,44.2c0.5,0,1,0.7,1,1.6V91c0,0.9-0.4,1.6-1,1.6h-1.3
				c-0.5,0-1-0.7-1-1.6V45.8c0-0.9,0.4-1.6,1-1.6H32.8z"/>
			<path id="Right_Shadow" opacity="0.15" fill="#676868" d="M115,92.6c-0.7,0-1.3-0.7-1.3-1.6V45.8c0-0.9,0.6-1.6,1.3-1.6h1.8
				c0.7,0,1.3,0.7,1.3,1.6V91c0,0.9-0.6,1.6-1.3,1.6H115z"/>
			<path id="Bottom_Shadow" opacity="0.25" fill="#676868" d="M115.9,89.5c1.3,0,2.4,0.7,2.4,1.6l0,0c0,0.9-1.1,1.6-2.4,1.6H33.3
				c-1.3,0-2.4-0.7-2.4-1.6l0,0c0-0.9,1.1-1.6,2.4-1.6H115.9z"/>
			<path id="Top_Shadow" opacity="0.25" fill="#676868" d="M32.5,47.1c-1.3,0-2.4-0.7-2.4-1.6l0,0c0-0.9,1.1-1.6,2.4-1.6l83.6,0
				c1.3,0,2.4,0.7,2.4,1.6l0,0c0,0.9-1.1,1.6-2.4,1.6L32.5,47.1z"/>
			
				<linearGradient id="Body_Face_Shadow_1_" gradientUnits="userSpaceOnUse" x1="5110.3369" y1="-3714.3406" x2="5110.3369" y2="-3793.4521" gradientTransform="matrix(0 -1 1 0 3799.9375 5180.2188)">
				<stop  offset="0" style="stop-color:#171D1E"/>
				<stop  offset="1" style="stop-color:#231F20"/>
			</linearGradient>
			<path id="Body_Face_Shadow" opacity="0.3" fill="url(#Body_Face_Shadow_1_)" d="M100.4,44.1c0.9,0,1.6,0.8,1.6,1.7V94
				c0,1-0.7,1.7-1.6,1.7h-56c-0.9,0-1.6-0.8-1.6-1.7V45.8c0-1,0.7-1.7,1.6-1.7H100.4z"/>
			<linearGradient id="Body_Face_3_" gradientUnits="userSpaceOnUse" x1="60.5231" y1="82.844" x2="94.0517" y2="47.4911">
				<stop  offset="0" style="stop-color:#A1A9A7"/>
				<stop  offset="1" style="stop-color:#B1B8B6"/>
			</linearGradient>
			<path id="Body_Face_2_" fill="url(#Body_Face_3_)" stroke="#676868" stroke-width="0.5" d="M101.9,44c0.9,0,1.6,0.7,1.6,1.6V91
				c0,0.9-0.7,1.6-1.6,1.6H46.7c-0.9,0-1.6-0.7-1.6-1.6V45.6c0-0.9,0.7-1.6,1.6-1.6H101.9z"/>
			<g id="Port_1_">
				
					<linearGradient id="Hole_1_" gradientUnits="userSpaceOnUse" x1="5106.7246" y1="-3731.447" x2="5120.2729" y2="-3753.1243" gradientTransform="matrix(0 -1 1 0 3799.9375 5180.2188)">
					<stop  offset="0" style="stop-color:#3B4241"/>
					<stop  offset="1" style="stop-color:#231F20"/>
				</linearGradient>
				<polygon id="Hole_5_" fill="url(#Hole_1_)" stroke="#4D5556" points="51.7,53 51.7,84.9 70.6,84.9 70.6,77.3 75.4,77.3 
					75.4,60.6 70.6,60.6 70.6,53 				"/>
				<g id="Connectors_1_">
					
						<linearGradient id="SVGID_43_" gradientUnits="userSpaceOnUse" x1="5105.4233" y1="-3745.2834" x2="5103.1909" y2="-3741.0869" gradientTransform="matrix(0 -1 1 0 3799.9375 5180.2188)">
						<stop  offset="0" style="stop-color:#F7D978"/>
						<stop  offset="1" style="stop-color:#978B52"/>
					</linearGradient>
					<rect x="55.5" y="76.3" fill="url(#SVGID_43_)" width="5" height="0.6"/>
					
						<linearGradient id="SVGID_44_" gradientUnits="userSpaceOnUse" x1="5107.7388" y1="-3745.2834" x2="5105.5063" y2="-3741.0869" gradientTransform="matrix(0 -1 1 0 3799.9375 5180.2188)">
						<stop  offset="0" style="stop-color:#F7D978"/>
						<stop  offset="1" style="stop-color:#978B52"/>
					</linearGradient>
					<rect x="55.5" y="74" fill="url(#SVGID_44_)" width="5" height="0.6"/>
					
						<linearGradient id="SVGID_45_" gradientUnits="userSpaceOnUse" x1="5121.6299" y1="-3745.2834" x2="5119.3975" y2="-3741.0869" gradientTransform="matrix(0 -1 1 0 3799.9375 5180.2188)">
						<stop  offset="0" style="stop-color:#F7D978"/>
						<stop  offset="1" style="stop-color:#978B52"/>
					</linearGradient>
					<rect x="55.5" y="60.1" fill="url(#SVGID_45_)" width="5" height="0.6"/>
					
						<linearGradient id="SVGID_46_" gradientUnits="userSpaceOnUse" x1="5119.3145" y1="-3745.2834" x2="5117.082" y2="-3741.0869" gradientTransform="matrix(0 -1 1 0 3799.9375 5180.2188)">
						<stop  offset="0" style="stop-color:#F7D978"/>
						<stop  offset="1" style="stop-color:#978B52"/>
					</linearGradient>
					<rect x="55.5" y="62.4" fill="url(#SVGID_46_)" width="5" height="0.6"/>
					
						<linearGradient id="SVGID_47_" gradientUnits="userSpaceOnUse" x1="5116.9995" y1="-3745.2834" x2="5114.7671" y2="-3741.0869" gradientTransform="matrix(0 -1 1 0 3799.9375 5180.2188)">
						<stop  offset="0" style="stop-color:#F7D978"/>
						<stop  offset="1" style="stop-color:#978B52"/>
					</linearGradient>
					<rect x="55.5" y="64.7" fill="url(#SVGID_47_)" width="5" height="0.6"/>
					
						<linearGradient id="SVGID_48_" gradientUnits="userSpaceOnUse" x1="5114.6841" y1="-3745.2834" x2="5112.4517" y2="-3741.0869" gradientTransform="matrix(0 -1 1 0 3799.9375 5180.2188)">
						<stop  offset="0" style="stop-color:#F7D978"/>
						<stop  offset="1" style="stop-color:#978B52"/>
					</linearGradient>
					<rect x="55.5" y="67" fill="url(#SVGID_48_)" width="5" height="0.6"/>
					
						<linearGradient id="SVGID_49_" gradientUnits="userSpaceOnUse" x1="5112.3691" y1="-3745.2834" x2="5110.1367" y2="-3741.0869" gradientTransform="matrix(0 -1 1 0 3799.9375 5180.2188)">
						<stop  offset="0" style="stop-color:#F7D978"/>
						<stop  offset="1" style="stop-color:#978B52"/>
					</linearGradient>
					<rect x="55.5" y="69.3" fill="url(#SVGID_49_)" width="5" height="0.6"/>
					
						<linearGradient id="SVGID_50_" gradientUnits="userSpaceOnUse" x1="5110.0537" y1="-3745.2834" x2="5107.8213" y2="-3741.0869" gradientTransform="matrix(0 -1 1 0 3799.9375 5180.2188)">
						<stop  offset="0" style="stop-color:#F7D978"/>
						<stop  offset="1" style="stop-color:#978B52"/>
					</linearGradient>
					<rect x="55.5" y="71.7" fill="url(#SVGID_50_)" width="5" height="0.6"/>
				</g>
			</g>
			
				<linearGradient id="Vertical_Groove_1_" gradientUnits="userSpaceOnUse" x1="5101.8999" y1="-3702.3213" x2="5120.4219" y2="-3702.3213" gradientTransform="matrix(0 -1 1 0 3799.9375 5180.2188)">
				<stop  offset="0" style="stop-color:#3B4241"/>
				<stop  offset="1" style="stop-color:#231F20"/>
			</linearGradient>
			<rect id="Vertical_Groove" x="96" y="59.8" fill="url(#Vertical_Groove_1_)" stroke="#4D5556" width="3.2" height="18.5"/>
			<g id="Screw_Hole_Right_1_">
				<linearGradient id="Hole_2_" gradientUnits="userSpaceOnUse" x1="107.3201" y1="74.22" x2="111.1338" y2="68.3871">
					<stop  offset="0" style="stop-color:#3B4241"/>
					<stop  offset="1" style="stop-color:#231F20"/>
				</linearGradient>
				<circle id="Hole_4_" fill="url(#Hole_2_)" stroke="#4D5556" stroke-width="2" cx="110.2" cy="69.9" r="3.8"/>
				<path id="Highlight_1_" fill="none" stroke="#AEAFB1" stroke-width="2" d="M106.8,71.5c0,0,0.8,2.2,3.4,2.2
					c2.6,0,3.5-2.1,3.5-2.1"/>
			</g>
			<g id="Screw_Hole_Left_1_">
				<linearGradient id="Hole_3_" gradientUnits="userSpaceOnUse" x1="35.2419" y1="74.22" x2="39.0556" y2="68.3871">
					<stop  offset="0" style="stop-color:#3B4241"/>
					<stop  offset="1" style="stop-color:#231F20"/>
				</linearGradient>
				<circle id="Hole" fill="url(#Hole_3_)" stroke="#4D5556" stroke-width="2" cx="38.1" cy="69.9" r="3.8"/>
				<path id="Highlight" fill="none" stroke="#AEAFB1" stroke-width="2" d="M34.7,71.5c0,0,0.8,2.2,3.4,2.2c2.6,0,3.5-2.1,3.5-2.1"
					/>
			</g>
			<linearGradient id="SVGID_51_" gradientUnits="userSpaceOnUse" x1="36.4689" y1="54.6799" x2="39.3717" y2="54.6799">
				<stop  offset="0" style="stop-color:#3B4241"/>
				<stop  offset="1" style="stop-color:#231F20"/>
			</linearGradient>
			<polygon fill="url(#SVGID_51_)" stroke="#4D5556" points="36.5,52.6 36.5,56.9 37.6,56.9 37.6,55.3 39.4,55.3 39.4,52.5 			"/>
			<linearGradient id="SVGID_52_" gradientUnits="userSpaceOnUse" x1="36.4689" y1="83.1826" x2="39.3717" y2="83.1826">
				<stop  offset="0" style="stop-color:#3B4241"/>
				<stop  offset="1" style="stop-color:#231F20"/>
			</linearGradient>
			<polygon fill="url(#SVGID_52_)" stroke="#4D5556" points="36.5,81.1 36.5,85.4 37.6,85.4 37.6,83.8 39.4,83.8 39.4,81 			"/>
			<linearGradient id="SVGID_53_" gradientUnits="userSpaceOnUse" x1="108.1211" y1="54.6799" x2="111.024" y2="54.6799">
				<stop  offset="0" style="stop-color:#3B4241"/>
				<stop  offset="1" style="stop-color:#231F20"/>
			</linearGradient>
			<polygon fill="url(#SVGID_53_)" stroke="#4D5556" points="108.1,52.6 108.1,56.9 109.2,56.9 109.2,55.3 111,55.3 111,52.5 			"/>
			<linearGradient id="SVGID_54_" gradientUnits="userSpaceOnUse" x1="108.1211" y1="83.1826" x2="111.024" y2="83.1826">
				<stop  offset="0" style="stop-color:#3B4241"/>
				<stop  offset="1" style="stop-color:#231F20"/>
			</linearGradient>
			<polygon fill="url(#SVGID_54_)" stroke="#4D5556" points="108.1,81.1 108.1,85.4 109.2,85.4 109.2,83.8 111,83.8 111,81 			"/>
		</g>
	</g>
</g>
</svg>
