<?xml version="1.0" encoding="utf-8"?>
<!-- Generator: Adobe Illustrator 17.1.0, SVG Export Plug-In . SVG Version: 6.00 Build 0)  -->
<!DOCTYPE svg PUBLIC "-//W3C//DTD SVG 1.1//EN" "http://www.w3.org/Graphics/SVG/1.1/DTD/svg11.dtd">
<svg version="1.1" xmlns="http://www.w3.org/2000/svg" xmlns:xlink="http://www.w3.org/1999/xlink" x="0px" y="0px"
	 width="435" height="170" viewBox="0 0 435 170" enable-background="new 0 0 435 170" xml:space="preserve">
<g id="Hub_Back" display="none">
	<g display="inline">
		<path fill="#578DB4" d="M13.2,6.9c0.3-2.2,2.4-4,4.6-4h403.3c2.2,0,4.2,1.8,4.5,4l5,37c0.3,2.2,0.5,5.8,0.5,8v32.8
			c0,2.2-0.1,5.8-0.3,8l-4.5,64.7c-0.2,2.2-0.7,4.4-1.2,4.9c-0.5,0.5-2.7,0.9-4.9,0.9H16.9c-2.2,0-4.1-0.4-4.2-0.9
			c-0.1-0.5-0.4-2.7-0.6-4.9L6.7,91.2c-0.2-2.2-0.3-5.8-0.3-8V56c0-2.2,0.3-5.8,0.6-8L13.2,6.9z"/>
	</g>
	<g display="inline">
		<path fill="#2F5160" d="M19.7,9.7c0.3-2.2,2.3-4,4.5-4h389.4c2.2,0,4.2,1.8,4.5,4l5,38.8c0.3,2.2,0.5,5.8,0.5,8v24.9
			c0,2.2-0.1,5.8-0.3,8l-4.9,61c-0.2,2.2-2.1,4-4.3,4H23.8c-2.2,0-4.1-1.8-4.3-4l-4.9-61.5c-0.2-2.2-0.3-5.8-0.3-8V54.7
			c0-2.2,0.2-5.8,0.5-8L19.7,9.7z"/>
	</g>
	<g display="inline">
		<path fill="#578DB4" d="M21.1,11.5c0.3-2.2,2.3-4,4.5-4H412c2.2,0,4.2,1.8,4.5,4l4.9,38.3c0.3,2.2,0.5,5.8,0.5,8v24.5
			c0,2.2-0.1,5.8-0.3,8l-4.9,60.2c-0.2,2.2-2.1,4-4.3,4H25.1c-2.2,0-4.1-1.8-4.3-4l-4.9-60.6c-0.2-2.2-0.3-5.8-0.3-8V56
			c0-2.2,0.2-5.8,0.5-8L21.1,11.5z"/>
	</g>
	<g display="inline">
		<path fill="#2F5160" d="M28.7,14.3c0.2-2.2,2.2-4,4.4-4h375c2.2,0,4.1,1.8,4.3,4l3.1,42c0.2,2.2,0.3,5.8,0.3,8v27.2
			c0,2.2-0.1,5.8-0.3,8l-3.6,47.6c-0.2,2.2-2.1,4-4.3,4H32.1c-2.2,0-4.1-1.8-4.3-4l-3.1-42c-0.2-2.2-0.3-5.8-0.3-8V63.5
			c0-2.2,0.2-5.8,0.4-8L28.7,14.3z"/>
	</g>
	<g display="inline">
		<path fill="#578DB4" d="M30.7,15.8c0.2-2.2,2.2-4,4.4-4h371.4c2.2,0,4.1,1.8,4.3,4l3.1,41.2c0.2,2.2,0.3,5.8,0.3,8v26.6
			c0,2.2-0.1,5.8-0.3,8l-3.5,46.7c-0.2,2.2-2.1,4-4.3,4H34.2c-2.2,0-4.1-1.8-4.3-4L26.8,105c-0.2-2.2-0.3-5.8-0.3-8v-33
			c0-2.2,0.2-5.8,0.4-8L30.7,15.8z"/>
	</g>
	<polyline display="inline" fill="#2F5160" points="18,162.3 36,170.6 86,170.6 122.2,167.4 316.2,167.4 351,170.1 400.5,170.1 
		413.5,164.6 419,163.7 419,161.4 	"/>
	<g display="inline">
		<linearGradient id="SVGID_1_" gradientUnits="userSpaceOnUse" x1="406.2127" y1="37.6338" x2="368.1436" y2="121.0931">
			<stop  offset="0" style="stop-color:#80878D"/>
			<stop  offset="1" style="stop-color:#474E50"/>
		</linearGradient>
		<path fill="url(#SVGID_1_)" stroke="#4C5455" d="M406.8,94.6c0,1.1-0.9,2-2,2h-29.5c-1.1,0-2-0.9-2-2V51.3c0-1.1,0.9-2,2-2h29.5
			c1.1,0,2,0.9,2,2V94.6z"/>
		<linearGradient id="SVGID_2_" gradientUnits="userSpaceOnUse" x1="380.1595" y1="92.9159" x2="398.7057" y2="55.8236">
			<stop  offset="0" style="stop-color:#3A4141"/>
			<stop  offset="1" style="stop-color:#000000"/>
		</linearGradient>
		<path fill="url(#SVGID_2_)" stroke="#4C5455" d="M402.6,90.5c0,1.1-0.9,2-2,2h-21c-1.1,0-2-0.9-2-2V55.3c0-1.1,0.9-2,2-2h21
			c1.1,0,2,0.9,2,2V90.5z"/>
		<linearGradient id="SVGID_3_" gradientUnits="userSpaceOnUse" x1="397.228" y1="55.4541" x2="369.228" y2="109.2728">
			<stop  offset="0" style="stop-color:#4C5455"/>
			<stop  offset="1" style="stop-color:#262E2E"/>
		</linearGradient>
		<path opacity="0.5" fill="url(#SVGID_3_)" stroke="#4C5455" d="M378.3,57v20.5v7.1c0,1.1,0.9,2,1.9,2H398c1.1,0,1.9-0.9,1.9-2
			v-7.1V57H378.3z"/>
		<linearGradient id="SVGID_4_" gradientUnits="userSpaceOnUse" x1="385.0027" y1="75.2893" x2="393.2454" y2="56.6732">
			<stop  offset="0" style="stop-color:#4C5455"/>
			<stop  offset="1" style="stop-color:#262E2E"/>
		</linearGradient>
		<path fill="url(#SVGID_4_)" stroke="#4C5455" d="M401.1,57.3c0-1.1-0.9-2-2-2h-18.1c-1.1,0-2,0.9-2,2v13.1h22V57.3z"/>
		<linearGradient id="SVGID_5_" gradientUnits="userSpaceOnUse" x1="392.0618" y1="73.6103" x2="381.1196" y2="94.6423">
			<stop  offset="0" style="stop-color:#4C5455"/>
			<stop  offset="1" style="stop-color:#262E2E"/>
		</linearGradient>
		<path fill="url(#SVGID_5_)" stroke="#4C5455" d="M381.1,85.6h18.1c1.1,0,2-0.9,2-2V70.4h-22v13.3
			C379.2,84.7,380.1,85.6,381.1,85.6z"/>
		<linearGradient id="SVGID_6_" gradientUnits="userSpaceOnUse" x1="389.8844" y1="65.1721" x2="390.7306" y2="56.7112">
			<stop  offset="0" style="stop-color:#FFFFFF"/>
			<stop  offset="1" style="stop-color:#AAB0B7"/>
		</linearGradient>
		<rect x="389.3" y="58.4" fill="url(#SVGID_6_)" width="1.7" height="7.9"/>
		<linearGradient id="SVGID_7_" gradientUnits="userSpaceOnUse" x1="389.0994" y1="79.7058" x2="393.3433" y2="71.8242">
			<stop  offset="0" style="stop-color:#FFFFFF"/>
			<stop  offset="1" style="stop-color:#AAB0B7"/>
		</linearGradient>
		<path fill="url(#SVGID_7_)" d="M390.2,73.4c-2.4,0-4.3,1.9-4.3,4.3c0,2.4,1.9,4.3,4.3,4.3s4.3-1.9,4.3-4.3
			C394.5,75.3,392.6,73.4,390.2,73.4z M390.2,80.9c-1.7,0-3.1-1.4-3.1-3.1c0-1.7,1.4-3.1,3.1-3.1c1.7,0,3.1,1.4,3.1,3.1
			C393.3,79.5,391.9,80.9,390.2,80.9z"/>
	</g>
	<g display="inline">
		<rect x="345.8" y="100.4" fill="#5D6567" width="61.1" height="47.6"/>
		<linearGradient id="SVGID_8_" gradientUnits="userSpaceOnUse" x1="390.2693" y1="100.0266" x2="354.4767" y2="164.9673">
			<stop  offset="0" style="stop-color:#80878D"/>
			<stop  offset="1" style="stop-color:#474E50"/>
		</linearGradient>
		<rect x="347" y="99.3" fill="url(#SVGID_8_)" stroke="#4C5455" width="61.1" height="47.6"/>
		<linearGradient id="SVGID_9_" gradientUnits="userSpaceOnUse" x1="388.8752" y1="102.2542" x2="356.699" y2="160.6335">
			<stop  offset="0" style="stop-color:#AEB3BB"/>
			<stop  offset="1" style="stop-color:#7B8388"/>
		</linearGradient>
		<path fill="url(#SVGID_9_)" d="M405.7,143.4c0,0.5-0.4,1-1,1h-54.6c-0.5,0-1-0.4-1-1v-40.7c0-0.5,0.4-1,1-1h54.6c0.5,0,1,0.4,1,1
			V143.4z"/>
		<linearGradient id="SVGID_10_" gradientUnits="userSpaceOnUse" x1="371.0587" y1="148.8122" x2="378.38" y2="113.6701">
			<stop  offset="0" style="stop-color:#3A4141"/>
			<stop  offset="1" style="stop-color:#000000"/>
		</linearGradient>
		<polygon fill="url(#SVGID_10_)" stroke="#4C5455" points="352.6,104.2 402.5,104.2 402.5,131.2 385.6,142.6 369.3,142.6 
			352.6,131.2 		"/>
		<g>
			<linearGradient id="SVGID_11_" gradientUnits="userSpaceOnUse" x1="361.1485" y1="119.9205" x2="362.7684" y2="112.1451">
				<stop  offset="0" style="stop-color:#8E969C"/>
				<stop  offset="1" style="stop-color:#D1D4D9"/>
			</linearGradient>
			<rect x="359.8" y="109.4" fill="url(#SVGID_11_)" stroke="#9299A0" width="5.2" height="8.9"/>
			<linearGradient id="SVGID_12_" gradientUnits="userSpaceOnUse" x1="391.2908" y1="119.9205" x2="392.9107" y2="112.1451">
				<stop  offset="0" style="stop-color:#8E969C"/>
				<stop  offset="1" style="stop-color:#D1D4D9"/>
			</linearGradient>
			<rect x="389.9" y="109.4" fill="url(#SVGID_12_)" stroke="#9299A0" width="5.2" height="8.9"/>
			<linearGradient id="SVGID_13_" gradientUnits="userSpaceOnUse" x1="376.3534" y1="140.3263" x2="377.9732" y2="132.5509">
				<stop  offset="0" style="stop-color:#8E969C"/>
				<stop  offset="1" style="stop-color:#D1D4D9"/>
			</linearGradient>
			<rect x="375" y="129.8" fill="url(#SVGID_13_)" stroke="#9299A0" width="5.2" height="8.9"/>
		</g>
	</g>
	<linearGradient id="SVGID_14_" gradientUnits="userSpaceOnUse" x1="279.8618" y1="102.8057" x2="295.3616" y2="48.3354">
		<stop  offset="0" style="stop-color:#3A4141"/>
		<stop  offset="1" style="stop-color:#000000"/>
	</linearGradient>
	<rect x="269" y="14.3" display="inline" fill="url(#SVGID_14_)" stroke="#4C5455" stroke-width="0.2" width="53.5" height="65.3"/>
	<linearGradient id="SVGID_15_" gradientUnits="userSpaceOnUse" x1="279.8618" y1="171.6228" x2="295.3616" y2="117.1526">
		<stop  offset="0" style="stop-color:#3A4141"/>
		<stop  offset="1" style="stop-color:#000000"/>
	</linearGradient>
	<rect x="269" y="83.1" display="inline" fill="url(#SVGID_15_)" stroke="#4C5455" stroke-width="0.2" width="53.5" height="65.3"/>
	<linearGradient id="SVGID_16_" gradientUnits="userSpaceOnUse" x1="221.6601" y1="102.8057" x2="237.1598" y2="48.3354">
		<stop  offset="0" style="stop-color:#3A4141"/>
		<stop  offset="1" style="stop-color:#000000"/>
	</linearGradient>
	
		<rect x="210.8" y="14.3" display="inline" fill="url(#SVGID_16_)" stroke="#4C5455" stroke-width="0.2" width="53.5" height="65.3"/>
	<linearGradient id="SVGID_17_" gradientUnits="userSpaceOnUse" x1="221.6601" y1="171.6229" x2="237.1598" y2="117.1526">
		<stop  offset="0" style="stop-color:#3A4141"/>
		<stop  offset="1" style="stop-color:#000000"/>
	</linearGradient>
	
		<rect x="210.8" y="83.1" display="inline" fill="url(#SVGID_17_)" stroke="#4C5455" stroke-width="0.2" width="53.5" height="65.3"/>
	<linearGradient id="SVGID_18_" gradientUnits="userSpaceOnUse" x1="163.4583" y1="102.8057" x2="178.958" y2="48.3354">
		<stop  offset="0" style="stop-color:#3A4141"/>
		<stop  offset="1" style="stop-color:#000000"/>
	</linearGradient>
	
		<rect x="152.6" y="14.3" display="inline" fill="url(#SVGID_18_)" stroke="#4C5455" stroke-width="0.2" width="53.5" height="65.3"/>
	<linearGradient id="SVGID_19_" gradientUnits="userSpaceOnUse" x1="163.4583" y1="171.6229" x2="178.958" y2="117.1526">
		<stop  offset="0" style="stop-color:#3A4141"/>
		<stop  offset="1" style="stop-color:#000000"/>
	</linearGradient>
	
		<rect x="152.6" y="83.1" display="inline" fill="url(#SVGID_19_)" stroke="#4C5455" stroke-width="0.2" width="53.5" height="65.3"/>
	<linearGradient id="SVGID_20_" gradientUnits="userSpaceOnUse" x1="105.2565" y1="102.8057" x2="120.7562" y2="48.3354">
		<stop  offset="0" style="stop-color:#3A4141"/>
		<stop  offset="1" style="stop-color:#000000"/>
	</linearGradient>
	
		<rect x="94.4" y="14.3" display="inline" fill="url(#SVGID_20_)" stroke="#4C5455" stroke-width="0.2" width="53.5" height="65.3"/>
	<linearGradient id="SVGID_21_" gradientUnits="userSpaceOnUse" x1="105.2565" y1="171.6229" x2="120.7562" y2="117.1526">
		<stop  offset="0" style="stop-color:#3A4141"/>
		<stop  offset="1" style="stop-color:#000000"/>
	</linearGradient>
	
		<rect x="94.4" y="83.1" display="inline" fill="url(#SVGID_21_)" stroke="#4C5455" stroke-width="0.2" width="53.5" height="65.3"/>
	<linearGradient id="SVGID_22_" gradientUnits="userSpaceOnUse" x1="47.0547" y1="102.8057" x2="62.5544" y2="48.3354">
		<stop  offset="0" style="stop-color:#3A4141"/>
		<stop  offset="1" style="stop-color:#000000"/>
	</linearGradient>
	
		<rect x="36.2" y="14.3" display="inline" fill="url(#SVGID_22_)" stroke="#4C5455" stroke-width="0.2" width="53.5" height="65.3"/>
	<linearGradient id="SVGID_23_" gradientUnits="userSpaceOnUse" x1="47.0547" y1="171.6229" x2="62.5544" y2="117.1526">
		<stop  offset="0" style="stop-color:#3A4141"/>
		<stop  offset="1" style="stop-color:#000000"/>
	</linearGradient>
	
		<rect x="36.2" y="83.1" display="inline" fill="url(#SVGID_23_)" stroke="#4C5455" stroke-width="0.2" width="53.5" height="65.3"/>
	<rect x="26.4" y="1" display="inline" fill="#578DB4" width="6.1" height="2.5"/>
	<rect x="41.1" y="1" display="inline" fill="#578DB4" width="6.1" height="2.5"/>
	<rect x="56.2" y="1" display="inline" fill="#578DB4" width="6.1" height="2.5"/>
	<rect x="70.9" y="1" display="inline" fill="#578DB4" width="6.1" height="2.5"/>
	<rect x="85" y="1" display="inline" fill="#578DB4" width="6.1" height="2.5"/>
	<rect x="99.7" y="1" display="inline" fill="#578DB4" width="6.1" height="2.5"/>
	<rect x="113.8" y="1" display="inline" fill="#578DB4" width="6.1" height="2.5"/>
	<rect x="128.4" y="1" display="inline" fill="#578DB4" width="6.1" height="2.5"/>
	<rect x="143.6" y="1" display="inline" fill="#578DB4" width="6.1" height="2.5"/>
	<rect x="158.2" y="1" display="inline" fill="#578DB4" width="6.1" height="2.5"/>
	<rect x="172.4" y="1" display="inline" fill="#578DB4" width="6.1" height="2.5"/>
	<rect x="187" y="1" display="inline" fill="#578DB4" width="6.1" height="2.5"/>
	<rect x="202.1" y="1" display="inline" fill="#578DB4" width="6.1" height="2.5"/>
	<rect x="216.8" y="1" display="inline" fill="#578DB4" width="6.1" height="2.5"/>
	<rect x="231.9" y="1" display="inline" fill="#578DB4" width="6.1" height="2.5"/>
	<rect x="246.6" y="1" display="inline" fill="#578DB4" width="6.1" height="2.5"/>
	<rect x="260.7" y="1" display="inline" fill="#578DB4" width="6.1" height="2.5"/>
	<rect x="275.4" y="1" display="inline" fill="#578DB4" width="6.1" height="2.5"/>
	<rect x="290" y="1" display="inline" fill="#578DB4" width="6.1" height="2.5"/>
	<rect x="304.6" y="1" display="inline" fill="#578DB4" width="6.1" height="2.5"/>
	<rect x="319.8" y="1" display="inline" fill="#578DB4" width="6.1" height="2.5"/>
	<rect x="334.4" y="1" display="inline" fill="#578DB4" width="6.1" height="2.5"/>
	<rect x="348.6" y="1" display="inline" fill="#578DB4" width="6.1" height="2.5"/>
	<rect x="363.2" y="1" display="inline" fill="#578DB4" width="6.1" height="2.5"/>
	<rect x="377.4" y="1" display="inline" fill="#578DB4" width="6.1" height="2.5"/>
	<rect x="391.5" y="1" display="inline" fill="#578DB4" width="6.1" height="2.5"/>
	<rect x="406.2" y="1" display="inline" fill="#578DB4" width="6.1" height="2.5"/>
	<path display="inline" fill="#578DB4" d="M18.1,3.5h-3.7V1.8c0,0,0.3-0.8,1-0.8s2.7,0,2.7,0V3.5z"/>
	<path display="inline" fill="#578DB4" d="M419.9,3.5h3.7V1.8c0,0-0.3-0.8-1-0.8c-0.7,0-2.7,0-2.7,0V3.5z"/>
	<linearGradient id="SVGID_24_" gradientUnits="userSpaceOnUse" x1="362.0091" y1="84.478" x2="362.0091" y2="68.1132">
		<stop  offset="0" style="stop-color:#3A4141"/>
		<stop  offset="1" style="stop-color:#000000"/>
	</linearGradient>
	<circle display="inline" fill="url(#SVGID_24_)" stroke="#BCBEC0" cx="362" cy="76.8" r="3.2"/>
	<g id="Layer_2" display="inline">
		<g>
			<linearGradient id="SVGID_25_" gradientUnits="userSpaceOnUse" x1="379.3964" y1="111.647" x2="366.9245" y2="145.7048">
				<stop  offset="0" style="stop-color:#3A4141"/>
				<stop  offset="1" style="stop-color:#000000"/>
			</linearGradient>
			<path fill="url(#SVGID_25_)" d="M353.5,108.3c0-1.1,0.9-2,2-2h42.6c1.1,0,2,0.9,2,2v20.4c0,1.1-0.8,2.5-1.7,3.1l-12.5,8.1
				c-0.9,0.6-2.6,1.1-3.7,1.1h-11.2c-1.1,0-2.8-0.5-3.7-1.1l-12.3-8.1c-0.9-0.6-1.7-2-1.7-3.1V108.3z"/>
			<path fill="none" stroke="#4C5455" d="M353.5,108.3c0-1.1,0.9-2,2-2h42.6c1.1,0,2,0.9,2,2v20.4c0,1.1-0.8,2.5-1.7,3.1l-12.5,8.1
				c-0.9,0.6-2.6,1.1-3.7,1.1h-11.2c-1.1,0-2.8-0.5-3.7-1.1l-12.3-8.1c-0.9-0.6-1.7-2-1.7-3.1V108.3z"/>
		</g>
		<linearGradient id="SVGID_26_" gradientUnits="userSpaceOnUse" x1="377.3904" y1="105.0822" x2="372.8434" y2="117.4988">
			<stop  offset="0" style="stop-color:#3A4141"/>
			<stop  offset="1" style="stop-color:#000000"/>
		</linearGradient>
		<polyline fill="url(#SVGID_26_)" stroke="#4C5455" points="354.8,107.6 364.5,112.3 389.6,112.3 397.9,108.1 		"/>
		
			<linearGradient id="SVGID_27_" gradientUnits="userSpaceOnUse" x1="1813.293" y1="128.9882" x2="1830.0067" y2="119.0646" gradientTransform="matrix(-1 0 0 1 2213.6328 0)">
			<stop  offset="0" style="stop-color:#3A4141"/>
			<stop  offset="1" style="stop-color:#000000"/>
		</linearGradient>
		<polyline fill="url(#SVGID_27_)" points="399.3,108.1 389.9,112.3 385.2,140.2 399.5,130.3 		"/>
		<linearGradient id="SVGID_28_" gradientUnits="userSpaceOnUse" x1="384.1309" y1="147" x2="371.342" y2="147">
			<stop  offset="0" style="stop-color:#3A4141"/>
			<stop  offset="1" style="stop-color:#000000"/>
		</linearGradient>
		<path fill="url(#SVGID_28_)" d="M383.2,167.1c0,1.6-2.5,2.9-5.7,2.9l0,0c-3.1,0-5.7-1.3-5.7-2.9v-40.2c0-1.6,2.5-2.9,5.7-2.9l0,0
			c3.1,0,5.7,1.3,5.7,2.9V167.1z"/>
		<linearGradient id="SVGID_29_" gradientUnits="userSpaceOnUse" x1="377.1216" y1="116.7213" x2="377.1216" y2="113.7427">
			<stop  offset="0" style="stop-color:#3A4141"/>
			<stop  offset="1" style="stop-color:#000000"/>
		</linearGradient>
		<path fill="url(#SVGID_29_)" d="M386.7,114.4c0,0.4-0.3,0.7-0.7,0.7h-17.7c-0.4,0-0.7-0.3-0.7-0.7l0,0c0-0.4,0.3-0.7,0.7-0.7H386
			C386.4,113.7,386.7,114,386.7,114.4L386.7,114.4z"/>
		<linearGradient id="SVGID_30_" gradientUnits="userSpaceOnUse" x1="377.1214" y1="118.3038" x2="377.1214" y2="116.2559">
			<stop  offset="0" style="stop-color:#3A4141"/>
			<stop  offset="1" style="stop-color:#000000"/>
		</linearGradient>
		<path fill="url(#SVGID_30_)" d="M383.7,116.7c0,0.3-0.2,0.5-0.5,0.5H371c-0.3,0-0.5-0.2-0.5-0.5l0,0c0-0.3,0.2-0.5,0.5-0.5h12.2
			C383.5,116.2,383.7,116.4,383.7,116.7L383.7,116.7z"/>
		<linearGradient id="SVGID_31_" gradientUnits="userSpaceOnUse" x1="377.1214" y1="119.9703" x2="377.1214" y2="118.3063">
			<stop  offset="0" style="stop-color:#3A4141"/>
			<stop  offset="1" style="stop-color:#000000"/>
		</linearGradient>
		<path fill="url(#SVGID_31_)" d="M381.8,118.6c0,0.2-0.2,0.4-0.3,0.4h-8.7c-0.2,0-0.3-0.2-0.3-0.4l0,0c0-0.2,0.2-0.4,0.3-0.4h8.7
			C381.6,118.3,381.8,118.4,381.8,118.6L381.8,118.6z"/>
		<linearGradient id="SVGID_32_" gradientUnits="userSpaceOnUse" x1="364.6089" y1="118.0369" x2="354.425" y2="143.3783">
			<stop  offset="0" style="stop-color:#3A4141"/>
			<stop  offset="1" style="stop-color:#000000"/>
		</linearGradient>
		<polyline fill="url(#SVGID_32_)" points="355.1,108.1 364.5,112.3 369.2,140.2 354.8,130.3 		"/>
	</g>
</g>
<g id="Hub_Front">
	<g>
		<path fill="#578DB4" d="M13.2,6.9c0.3-2.2,2.4-4,4.6-4h403.3c2.2,0,4.2,1.8,4.5,4l5,37c0.3,2.2,0.5,5.8,0.5,8v32.8
			c0,2.2-0.1,5.8-0.3,8l-4.5,64.7c-0.2,2.2-0.7,4.4-1.2,4.9c-0.5,0.5-2.7,0.9-4.9,0.9H16.9c-2.2,0-4.1-0.4-4.2-0.9
			c-0.1-0.5-0.4-2.7-0.6-4.9L6.7,91.2c-0.2-2.2-0.3-5.8-0.3-8V56c0-2.2,0.3-5.8,0.6-8L13.2,6.9z"/>
	</g>
	<g>
		<path fill="#2F5160" d="M19.7,9.7c0.3-2.2,2.3-4,4.5-4h389.4c2.2,0,4.2,1.8,4.5,4l5,38.8c0.3,2.2,0.5,5.8,0.5,8v24.9
			c0,2.2-0.1,5.8-0.3,8l-4.9,61c-0.2,2.2-2.1,4-4.3,4H23.8c-2.2,0-4.1-1.8-4.3-4l-4.9-61.5c-0.2-2.2-0.3-5.8-0.3-8V54.7
			c0-2.2,0.2-5.8,0.5-8L19.7,9.7z"/>
	</g>
	<g>
		<path fill="#578DB4" d="M21.1,11.5c0.3-2.2,2.3-4,4.5-4H412c2.2,0,4.2,1.8,4.5,4l4.9,38.3c0.3,2.2,0.5,5.8,0.5,8v24.5
			c0,2.2-0.1,5.8-0.3,8l-4.9,60.2c-0.2,2.2-2.1,4-4.3,4H25.1c-2.2,0-4.1-1.8-4.3-4l-4.9-60.6c-0.2-2.2-0.3-5.8-0.3-8V56
			c0-2.2,0.2-5.8,0.5-8L21.1,11.5z"/>
	</g>
	<polyline fill="#2F5160" points="18,162.3 36,170.6 86,170.6 122.2,167.4 316.2,167.4 351,170.1 400.5,170.1 413.5,164.6 
		419,163.7 419,161.4 	"/>
	<g>
		<path fill="#FFFFFF" d="M283,147.8l2.3-13.6h4.6c0.8,0,1.4,0.1,1.8,0.3c0.4,0.2,0.7,0.6,1,1.1c0.3,0.5,0.4,1.2,0.4,1.9
			c0,0.9-0.2,1.8-0.7,2.6s-1,1.4-1.7,1.7c-0.7,0.3-1.6,0.4-2.6,0.4h-2.8l-0.9,5.5H283z M285.7,140.8h2.4c0.9,0,1.5-0.1,2-0.3
			c0.4-0.2,0.8-0.6,1.1-1.1c0.3-0.5,0.4-1.1,0.4-1.7c0-0.5-0.1-0.9-0.2-1.1c-0.2-0.3-0.4-0.5-0.6-0.6c-0.3-0.1-0.7-0.2-1.4-0.2h-2.8
			L285.7,140.8z"/>
		<path fill="#FFFFFF" d="M298.6,146.6c-0.5,0.5-1,0.9-1.4,1.1c-0.4,0.2-0.9,0.3-1.3,0.3c-0.7,0-1.3-0.3-1.8-0.8
			c-0.5-0.5-0.7-1.2-0.7-2.1c0-0.6,0.1-1.2,0.4-1.6c0.3-0.5,0.7-0.8,1.2-1.1s1.2-0.4,2.1-0.4c0.8,0,1.3-0.1,1.6-0.1
			c0.3,0,0.5-0.1,0.8-0.2c0.1-0.5,0.2-0.9,0.2-1.1c0-0.4-0.2-0.7-0.5-1s-0.8-0.4-1.4-0.4c-1.2,0-2,0.6-2.3,1.8l-1.4-0.1
			c0.6-2,1.9-3,3.8-3c0.9,0,1.7,0.2,2.3,0.7c0.6,0.5,0.8,1.1,0.8,1.9c0,0.5-0.1,1.1-0.2,1.8l-0.5,2.4c-0.2,0.8-0.3,1.4-0.3,1.9
			c0,0.3,0.1,0.8,0.2,1.3h-1.4C298.6,147.5,298.6,147.1,298.6,146.6z M299.2,142.8c-0.3,0.2-0.9,0.3-1.8,0.4
			c-0.8,0.1-1.4,0.2-1.7,0.3c-0.3,0.1-0.6,0.3-0.7,0.6s-0.3,0.6-0.3,1c0,0.5,0.1,0.9,0.4,1.2c0.3,0.3,0.7,0.4,1.1,0.4
			c0.4,0,0.9-0.1,1.3-0.4c0.4-0.3,0.7-0.7,1-1.2C298.8,144.7,299,143.9,299.2,142.8z"/>
		<path fill="#FFFFFF" d="M307.3,144.2l1.4,0.2c-0.3,1.2-0.8,2.1-1.5,2.7c-0.6,0.6-1.4,0.9-2.1,0.9c-0.9,0-1.6-0.3-2.1-1
			c-0.6-0.7-0.8-1.6-0.8-2.9c0-1.3,0.2-2.4,0.6-3.4c0.4-1,0.9-1.8,1.6-2.2s1.3-0.7,2.1-0.7c0.8,0,1.5,0.3,2,0.9
			c0.5,0.6,0.8,1.4,0.8,2.4l-1.3,0.1c0-0.6-0.1-1.1-0.4-1.5c-0.3-0.3-0.7-0.5-1.1-0.5c-0.5,0-0.9,0.2-1.3,0.5s-0.7,0.9-1,1.8
			c-0.3,0.9-0.4,1.8-0.4,2.9c0,0.8,0.2,1.4,0.5,1.8c0.3,0.4,0.7,0.6,1.1,0.6c0.4,0,0.9-0.2,1.3-0.6
			C306.8,145.7,307.1,145.1,307.3,144.2z"/>
		<path fill="#FFFFFF" d="M309.5,147.8l2.3-13.6h1.4l-1.4,8.4l4-4.7h1.8l-3.4,3.7l2.1,6.2h-1.5l-1.6-5l-1.7,1.7l-0.6,3.3H309.5z"/>
		<path fill="#FFFFFF" d="M323.2,144.5l1.3,0.2c-0.2,1-0.7,1.8-1.5,2.5c-0.7,0.6-1.4,0.9-2.2,0.9c-0.6,0-1.1-0.2-1.6-0.5
			c-0.5-0.3-0.9-0.8-1.1-1.4c-0.3-0.6-0.4-1.4-0.4-2.3c0-1.2,0.2-2.2,0.7-3.2c0.4-1,1-1.7,1.6-2.2c0.6-0.5,1.3-0.7,2-0.7
			c0.9,0,1.7,0.4,2.3,1.1c0.6,0.7,0.9,1.7,0.9,3c0,0.5,0,1-0.1,1.5H319c0,0.2,0,0.4,0,0.5c0,0.9,0.2,1.6,0.5,2.1
			c0.4,0.5,0.8,0.7,1.3,0.7c0.5,0,0.9-0.2,1.4-0.6C322.6,145.7,323,145.2,323.2,144.5z M319.2,142.1h4.5v-0.3c0-0.9-0.2-1.5-0.5-2
			c-0.3-0.4-0.8-0.7-1.3-0.7c-0.6,0-1.1,0.2-1.6,0.7C319.8,140.3,319.5,141.1,319.2,142.1z"/>
		<path fill="#FFFFFF" d="M329,146.5l-0.2,1.4c-0.3,0.1-0.6,0.2-0.9,0.2c-0.5,0-0.9-0.1-1.2-0.4c-0.3-0.3-0.4-0.6-0.4-1.1
			c0-0.2,0.1-0.7,0.2-1.5l1-5.7h-1.1l0.2-1.3h1.1l0.4-2.4l1.6-1.2L329,138h1.3l-0.2,1.3h-1.3l-0.9,5.4c-0.1,0.7-0.2,1.1-0.2,1.2
			c0,0.2,0,0.4,0.1,0.5c0.1,0.1,0.2,0.1,0.4,0.1C328.5,146.6,328.8,146.5,329,146.5z"/>
		<path fill="#FFFFFF" d="M337.2,147.8l2.1-12h-3.6l0.3-1.5h8.7l-0.3,1.5h-3.6l-2,12H337.2z"/>
		<path fill="#FFFFFF" d="M343,147.8l1.7-9.8h1.2l-0.3,2c0.8-1.5,1.6-2.2,2.4-2.2c0.3,0,0.6,0.1,1,0.4l-0.6,1.6
			c-0.2-0.2-0.5-0.3-0.8-0.3c-0.5,0-1,0.3-1.5,1c-0.5,0.7-0.9,1.8-1.2,3.5l-0.7,3.9H343z"/>
		<path fill="#FFFFFF" d="M353.6,146.6c-0.5,0.5-1,0.9-1.4,1.1c-0.4,0.2-0.9,0.3-1.3,0.3c-0.7,0-1.3-0.3-1.8-0.8
			c-0.5-0.5-0.7-1.2-0.7-2.1c0-0.6,0.1-1.2,0.4-1.6c0.3-0.5,0.7-0.8,1.2-1.1s1.2-0.4,2.1-0.4c0.8,0,1.3-0.1,1.6-0.1
			c0.3,0,0.5-0.1,0.8-0.2c0.1-0.5,0.2-0.9,0.2-1.1c0-0.4-0.2-0.7-0.5-1c-0.3-0.2-0.8-0.4-1.4-0.4c-1.2,0-2,0.6-2.3,1.8l-1.4-0.1
			c0.6-2,1.9-3,3.8-3c0.9,0,1.7,0.2,2.3,0.7c0.6,0.5,0.8,1.1,0.8,1.9c0,0.5-0.1,1.1-0.2,1.8l-0.5,2.4c-0.2,0.8-0.3,1.4-0.3,1.9
			c0,0.3,0.1,0.8,0.2,1.3h-1.4C353.7,147.5,353.6,147.1,353.6,146.6z M354.2,142.8c-0.3,0.2-0.9,0.3-1.8,0.4
			c-0.8,0.1-1.4,0.2-1.7,0.3c-0.3,0.1-0.6,0.3-0.7,0.6s-0.3,0.6-0.3,1c0,0.5,0.1,0.9,0.4,1.2c0.3,0.3,0.7,0.4,1.1,0.4
			c0.4,0,0.9-0.1,1.3-0.4c0.4-0.3,0.7-0.7,1-1.2C353.8,144.7,354,143.9,354.2,142.8z"/>
		<path fill="#FFFFFF" d="M362.4,144.2l1.4,0.2c-0.3,1.2-0.8,2.1-1.5,2.7c-0.6,0.6-1.4,0.9-2.1,0.9c-0.9,0-1.6-0.3-2.1-1
			s-0.8-1.6-0.8-2.9c0-1.3,0.2-2.4,0.6-3.4c0.4-1,0.9-1.8,1.6-2.2s1.3-0.7,2.1-0.7c0.8,0,1.5,0.3,2,0.9c0.5,0.6,0.8,1.4,0.8,2.4
			l-1.3,0.1c0-0.6-0.1-1.1-0.4-1.5c-0.3-0.3-0.7-0.5-1.1-0.5c-0.5,0-0.9,0.2-1.3,0.5s-0.7,0.9-1,1.8c-0.3,0.9-0.4,1.8-0.4,2.9
			c0,0.8,0.2,1.4,0.5,1.8c0.3,0.4,0.7,0.6,1.1,0.6c0.4,0,0.9-0.2,1.3-0.6S362.1,145.1,362.4,144.2z"/>
		<path fill="#FFFFFF" d="M370.5,144.5l1.3,0.2c-0.2,1-0.7,1.8-1.5,2.5c-0.7,0.6-1.4,0.9-2.2,0.9c-0.6,0-1.1-0.2-1.6-0.5
			c-0.5-0.3-0.9-0.8-1.1-1.4c-0.3-0.6-0.4-1.4-0.4-2.3c0-1.2,0.2-2.2,0.7-3.2c0.4-1,1-1.7,1.6-2.2s1.3-0.7,2-0.7
			c0.9,0,1.7,0.4,2.3,1.1c0.6,0.7,0.9,1.7,0.9,3c0,0.5,0,1-0.1,1.5h-5.9c0,0.2,0,0.4,0,0.5c0,0.9,0.2,1.6,0.5,2.1
			c0.4,0.5,0.8,0.7,1.3,0.7c0.5,0,0.9-0.2,1.4-0.6C369.9,145.7,370.2,145.2,370.5,144.5z M366.5,142.1h4.5v-0.3c0-0.9-0.2-1.5-0.5-2
			c-0.3-0.4-0.8-0.7-1.3-0.7c-0.6,0-1.1,0.2-1.6,0.7C367.1,140.3,366.7,141.1,366.5,142.1z"/>
		<path fill="#FFFFFF" d="M373.2,147.8l1.7-9.8h1.2l-0.3,2c0.8-1.5,1.6-2.2,2.4-2.2c0.3,0,0.6,0.1,1,0.4l-0.6,1.6
			c-0.2-0.2-0.5-0.3-0.8-0.3c-0.5,0-1,0.3-1.5,1c-0.5,0.7-0.9,1.8-1.2,3.5l-0.7,3.9H373.2z"/>
		<path fill="#FFFFFF" d="M382.8,147.8l2.3-13.6h1.5l-1,5.6h5.8l1-5.6h1.5l-2.3,13.6h-1.5l1.1-6.4h-5.8l-1.1,6.4H382.8z"/>
		<path fill="#FFFFFF" d="M399.4,146c-1,1.3-2,2-3,2c-0.6,0-1.1-0.2-1.5-0.6c-0.4-0.4-0.6-1-0.6-1.6c0-0.4,0.1-1.1,0.3-2.1l1-5.7
			h1.4l-1.1,6.3c-0.1,0.5-0.1,0.9-0.1,1.2c0,0.4,0.1,0.7,0.3,0.9c0.2,0.2,0.5,0.3,0.8,0.3c0.5,0,1-0.2,1.5-0.6
			c0.5-0.4,0.8-0.9,1.1-1.5c0.2-0.6,0.4-1.4,0.6-2.4l0.8-4.2h1.4l-1.8,9.8h-1.3L399.4,146z"/>
		<path fill="#FFFFFF" d="M402.5,147.8l2.3-13.6h1.4l-0.8,4.8c0.4-0.5,0.8-0.8,1.2-1c0.4-0.2,0.7-0.3,1.1-0.3c0.7,0,1.4,0.3,1.9,1
			c0.5,0.7,0.8,1.7,0.8,3c0,1.2-0.2,2.3-0.6,3.3c-0.4,1-0.9,1.7-1.5,2.2c-0.6,0.5-1.2,0.7-1.8,0.7c-1.1,0-1.9-0.7-2.3-2.1l-0.3,1.9
			H402.5z M404.6,143.8l0,0.4c0,0.8,0.2,1.5,0.5,1.9c0.3,0.4,0.8,0.6,1.2,0.6c0.4,0,0.8-0.2,1.2-0.5c0.4-0.3,0.7-0.9,1-1.8
			c0.3-0.9,0.5-1.7,0.5-2.6c0-0.9-0.2-1.6-0.5-2c-0.3-0.5-0.7-0.7-1.2-0.7c-0.4,0-0.9,0.2-1.3,0.7s-0.8,1.2-1.1,2.2
			C404.7,142.7,404.6,143.3,404.6,143.8z"/>
	</g>
	<rect x="26.4" y="1" fill="#578DB4" width="6.1" height="2.5"/>
	<rect x="41.1" y="1" fill="#578DB4" width="6.1" height="2.5"/>
	<rect x="56.2" y="1" fill="#578DB4" width="6.1" height="2.5"/>
	<rect x="70.9" y="1" fill="#578DB4" width="6.1" height="2.5"/>
	<rect x="85" y="1" fill="#578DB4" width="6.1" height="2.5"/>
	<rect x="99.7" y="1" fill="#578DB4" width="6.1" height="2.5"/>
	<rect x="113.8" y="1" fill="#578DB4" width="6.1" height="2.5"/>
	<rect x="128.4" y="1" fill="#578DB4" width="6.1" height="2.5"/>
	<rect x="143.6" y="1" fill="#578DB4" width="6.1" height="2.5"/>
	<rect x="158.2" y="1" fill="#578DB4" width="6.1" height="2.5"/>
	<rect x="172.4" y="1" fill="#578DB4" width="6.1" height="2.5"/>
	<rect x="187" y="1" fill="#578DB4" width="6.1" height="2.5"/>
	<rect x="202.1" y="1" fill="#578DB4" width="6.1" height="2.5"/>
	<rect x="216.8" y="1" fill="#578DB4" width="6.1" height="2.5"/>
	<rect x="231.9" y="1" fill="#578DB4" width="6.1" height="2.5"/>
	<rect x="246.6" y="1" fill="#578DB4" width="6.1" height="2.5"/>
	<rect x="260.7" y="1" fill="#578DB4" width="6.1" height="2.5"/>
	<rect x="275.4" y="1" fill="#578DB4" width="6.1" height="2.5"/>
	<rect x="290" y="1" fill="#578DB4" width="6.1" height="2.5"/>
	<rect x="304.6" y="1" fill="#578DB4" width="6.1" height="2.5"/>
	<rect x="319.8" y="1" fill="#578DB4" width="6.1" height="2.5"/>
	<rect x="334.4" y="1" fill="#578DB4" width="6.1" height="2.5"/>
	<rect x="348.6" y="1" fill="#578DB4" width="6.1" height="2.5"/>
	<rect x="363.2" y="1" fill="#578DB4" width="6.1" height="2.5"/>
	<rect x="377.4" y="1" fill="#578DB4" width="6.1" height="2.5"/>
	<rect x="391.5" y="1" fill="#578DB4" width="6.1" height="2.5"/>
	<rect x="406.2" y="1" fill="#578DB4" width="6.1" height="2.5"/>
	<path fill="#578DB4" d="M18.1,3.5h-3.7V1.8c0,0,0.3-0.8,1-0.8s2.7,0,2.7,0V3.5z"/>
	<path fill="#578DB4" d="M419.9,3.5h3.7V1.8c0,0-0.3-0.8-1-0.8c-0.7,0-2.7,0-2.7,0V3.5z"/>
	<g id="Layer_2_copy">
	</g>
	<line fill="none" stroke="#2F5160" stroke-width="2" stroke-miterlimit="10" x1="14.5" y1="63" x2="422.5" y2="63"/>
</g>
</svg>
