<?xml version="1.0" encoding="utf-8"?>
<!-- Generator: Adobe Illustrator 17.1.0, SVG Export Plug-In . SVG Version: 6.00 Build 0)  -->
<!DOCTYPE svg PUBLIC "-//W3C//DTD SVG 1.1//EN" "http://www.w3.org/Graphics/SVG/1.1/DTD/svg11.dtd">
<svg version="1.1" id="HardDrive" xmlns="http://www.w3.org/2000/svg" xmlns:xlink="http://www.w3.org/1999/xlink" x="0px" y="0px"
	 width="395"  height="212" viewBox="-82.5 250 395 212" enable-background="new -82.5 250 395 212" xml:space="preserve">
<g id="Body_2_">
	
		<linearGradient id="Base_1_" gradientUnits="userSpaceOnUse" x1="1494.3695" y1="-240.071" x2="1494.3695" y2="-329.0033" gradientTransform="matrix(2.500000e-003 1 0.6698 -1.700000e-003 452.4854 -1047.8109)">
		<stop  offset="0" style="stop-color:#5C5E5F"/>
		<stop  offset="0.2697" style="stop-color:#ABACAE"/>
		<stop  offset="0.8371" style="stop-color:#ABACAE"/>
		<stop  offset="1" style="stop-color:#5C5E5F"/>
	</linearGradient>
	<polygon id="Base" fill="url(#Base_1_)" points="299.7,454.4 225.6,454.4 225.5,439.7 299.6,440.1 	"/>
	
		<linearGradient id="Border_1_" gradientUnits="userSpaceOnUse" x1="214.6" y1="-142.05" x2="308.6" y2="-142.05" gradientTransform="matrix(1 0 0 -1 0 213)">
		<stop  offset="0" style="stop-color:#232727"/>
		<stop  offset="1" style="stop-color:#57595A"/>
	</linearGradient>
	<path id="Border" fill="url(#Border_1_)" stroke="#414141" stroke-width="2" d="M308.6,445.2c0,3.3-8,6-17.9,6h-58.2
		c-9.9,0-17.9-2.7-17.9-6V264.9c0-3.3,8-6,17.9-6h58.2c9.9,0,17.9,2.7,17.9,6V445.2z"/>
	<path id="Face" fill="#BCC0C8" d="M299.7,441.4c0,3.1-6.4,5.6-14.2,5.6h-46.1c-7.8,0-14.2-2.5-14.2-5.6v-169
		c0-3.1,6.4-5.6,14.2-5.6h46.1c7.8,0,14.2,2.5,14.2,5.6V441.4z"/>
</g>
<g id="Light">
	
		<radialGradient id="SVGID_1_" cx="282.8116" cy="-340.051" r="18.4031" gradientTransform="matrix(0.9391 0 0 -0.5 0.9496 205.9443)" gradientUnits="userSpaceOnUse">
		<stop  offset="1.123600e-002" style="stop-color:#D3DF62"/>
		<stop  offset="0.5" style="stop-color:#D3DF62"/>
		<stop  offset="1" style="stop-color:#61863D"/>
	</radialGradient>
	<rect x="253.5" y="374.8" fill="url(#SVGID_1_)" width="17.8" height="5.1"/>
</g>
<g id="Vents_1_">
	
		<linearGradient id="SVGID_2_" gradientUnits="userSpaceOnUse" x1="-1045.6307" y1="-669.064" x2="-1008.1912" y2="-630.8145" gradientTransform="matrix(0.3327 -3.065149e-003 -3.085245e-003 -0.3356 574.389 63.1093)">
		<stop  offset="0" style="stop-color:#3B4241;stop-opacity:0.5"/>
		<stop  offset="1" style="stop-color:#231F20;stop-opacity:0.75"/>
	</linearGradient>
	<path fill="url(#SVGID_2_)" d="M237.8,289.2c0,1-0.7,1.9-1.6,1.9l0,0c-0.9,0-1.6-0.8-1.7-1.8l-0.1-12.6c0-1,0.7-1.9,1.6-1.9l0,0
		c0.9,0,1.6,0.8,1.7,1.8L237.8,289.2z"/>
	
		<linearGradient id="SVGID_3_" gradientUnits="userSpaceOnUse" x1="-1027.8094" y1="-669.1351" x2="-990.3695" y2="-630.8851" gradientTransform="matrix(0.3327 -3.065149e-003 -3.085245e-003 -0.3356 574.389 63.1093)">
		<stop  offset="0" style="stop-color:#3B4241;stop-opacity:0.5"/>
		<stop  offset="1" style="stop-color:#231F20;stop-opacity:0.75"/>
	</linearGradient>
	<path fill="url(#SVGID_3_)" d="M243.7,289.2c0,1-0.7,1.9-1.6,1.9l0,0c-0.9,0-1.6-0.8-1.7-1.8l-0.1-12.6c0-1,0.7-1.9,1.6-1.9l0,0
		c0.9,0,1.7,0.8,1.7,1.8L243.7,289.2z"/>
	
		<linearGradient id="SVGID_4_" gradientUnits="userSpaceOnUse" x1="-1009.5513" y1="-669.0839" x2="-972.1113" y2="-630.834" gradientTransform="matrix(0.3327 -3.065149e-003 -3.085245e-003 -0.3356 574.389 63.1093)">
		<stop  offset="0" style="stop-color:#3B4241;stop-opacity:0.5"/>
		<stop  offset="1" style="stop-color:#231F20;stop-opacity:0.75"/>
	</linearGradient>
	<path fill="url(#SVGID_4_)" d="M249.8,289.1c0,1-0.7,1.9-1.6,1.9l0,0c-0.9,0-1.6-0.8-1.7-1.8l-0.1-12.6c0-1,0.7-1.9,1.6-1.9l0,0
		c0.9,0,1.6,0.8,1.7,1.8L249.8,289.1z"/>
	
		<linearGradient id="SVGID_5_" gradientUnits="userSpaceOnUse" x1="-991.7299" y1="-669.1548" x2="-954.289" y2="-630.9041" gradientTransform="matrix(0.3327 -3.065149e-003 -3.085245e-003 -0.3356 574.389 63.1093)">
		<stop  offset="0" style="stop-color:#3B4241;stop-opacity:0.5"/>
		<stop  offset="1" style="stop-color:#231F20;stop-opacity:0.75"/>
	</linearGradient>
	<path fill="url(#SVGID_5_)" d="M255.7,289.1c0,1-0.7,1.9-1.6,1.9l0,0c-0.9,0-1.6-0.8-1.7-1.8l-0.1-12.6c0-1,0.7-1.9,1.6-1.9l0,0
		c0.9,0,1.6,0.8,1.7,1.8L255.7,289.1z"/>
	
		<linearGradient id="SVGID_6_" gradientUnits="userSpaceOnUse" x1="-974.9545" y1="-669.3649" x2="-937.5148" y2="-631.1152" gradientTransform="matrix(0.3327 -3.065149e-003 -3.085245e-003 -0.3356 574.389 63.1093)">
		<stop  offset="0" style="stop-color:#3B4241;stop-opacity:0.5"/>
		<stop  offset="1" style="stop-color:#231F20;stop-opacity:0.75"/>
	</linearGradient>
	<path fill="url(#SVGID_6_)" d="M261.3,289.1c0,1-0.7,1.9-1.6,1.9l0,0c-0.9,0-1.6-0.8-1.7-1.8l-0.1-12.6c0-1,0.7-1.9,1.6-1.9l0,0
		c0.9,0,1.6,0.8,1.7,1.8L261.3,289.1z"/>
	
		<linearGradient id="SVGID_7_" gradientUnits="userSpaceOnUse" x1="-957.1321" y1="-669.4348" x2="-919.6924" y2="-631.1851" gradientTransform="matrix(0.3327 -3.065149e-003 -3.085245e-003 -0.3356 574.389 63.1093)">
		<stop  offset="0" style="stop-color:#3B4241;stop-opacity:0.5"/>
		<stop  offset="1" style="stop-color:#231F20;stop-opacity:0.75"/>
	</linearGradient>
	<path fill="url(#SVGID_7_)" d="M267.2,289.1c0,1-0.7,1.9-1.6,1.9l0,0c-0.9,0-1.6-0.8-1.7-1.8l-0.1-12.6c0-1,0.7-1.9,1.6-1.9l0,0
		c0.9,0,1.6,0.8,1.7,1.8L267.2,289.1z"/>
	
		<linearGradient id="SVGID_8_" gradientUnits="userSpaceOnUse" x1="-938.8752" y1="-669.385" x2="-901.4345" y2="-631.1344" gradientTransform="matrix(0.3327 -3.065149e-003 -3.085245e-003 -0.3356 574.389 63.1093)">
		<stop  offset="0" style="stop-color:#3B4241;stop-opacity:0.5"/>
		<stop  offset="1" style="stop-color:#231F20;stop-opacity:0.75"/>
	</linearGradient>
	<path fill="url(#SVGID_8_)" d="M273.3,289c0,1-0.7,1.9-1.6,1.9l0,0c-0.9,0-1.6-0.8-1.7-1.8l-0.1-12.6c0-1,0.7-1.9,1.6-1.9l0,0
		c0.9,0,1.6,0.8,1.7,1.8L273.3,289z"/>
	
		<linearGradient id="SVGID_9_" gradientUnits="userSpaceOnUse" x1="-920.897" y1="-669.6054" x2="-883.4575" y2="-631.356" gradientTransform="matrix(0.3327 -3.065149e-003 -3.085245e-003 -0.3356 574.389 63.1093)">
		<stop  offset="0" style="stop-color:#3B4241;stop-opacity:0.5"/>
		<stop  offset="1" style="stop-color:#231F20;stop-opacity:0.75"/>
	</linearGradient>
	<path fill="url(#SVGID_9_)" d="M279.3,289c0,1-0.7,1.9-1.6,1.9l0,0c-0.9,0-1.6-0.8-1.7-1.8l-0.1-12.6c0-1,0.7-1.9,1.6-1.9l0,0
		c0.9,0,1.6,0.8,1.7,1.8L279.3,289z"/>
	
		<linearGradient id="SVGID_10_" gradientUnits="userSpaceOnUse" x1="-904.2729" y1="-669.6603" x2="-866.8315" y2="-631.409" gradientTransform="matrix(0.3327 -3.065149e-003 -3.085245e-003 -0.3356 574.389 63.1093)">
		<stop  offset="0" style="stop-color:#3B4241;stop-opacity:0.5"/>
		<stop  offset="1" style="stop-color:#231F20;stop-opacity:0.75"/>
	</linearGradient>
	<path fill="url(#SVGID_10_)" d="M284.8,289c0,1-0.7,1.9-1.6,1.9l0,0c-0.9,0-1.6-0.8-1.7-1.8l-0.1-12.6c0-1,0.7-1.9,1.6-1.9l0,0
		c0.9,0,1.7,0.8,1.7,1.8L284.8,289z"/>
	
		<linearGradient id="SVGID_11_" gradientUnits="userSpaceOnUse" x1="-887.6207" y1="-669.7012" x2="-850.1806" y2="-631.451" gradientTransform="matrix(0.3327 -3.065149e-003 -3.085245e-003 -0.3356 574.389 63.1093)">
		<stop  offset="0" style="stop-color:#3B4241;stop-opacity:0.5"/>
		<stop  offset="1" style="stop-color:#231F20;stop-opacity:0.75"/>
	</linearGradient>
	<path fill="url(#SVGID_11_)" d="M290.4,288.9c0,1-0.7,1.9-1.6,1.9l0,0c-0.9,0-1.6-0.8-1.7-1.8l-0.1-12.6c0-1,0.7-1.9,1.6-1.9l0,0
		c0.9,0,1.6,0.8,1.7,1.8L290.4,288.9z"/>
</g>
<g id="USB_Port1">
	<path fill="#5C6568" stroke="#000000" stroke-width="3.5" d="M282.8,400.5c0,0.9-0.7,1.5-1.5,1.5h-37c-0.9,0-1.5-0.7-1.5-1.5v-14.6
		c0-0.9,0.7-1.5,1.5-1.5h37c0.9,0,1.5,0.7,1.5,1.5V400.5z"/>
	<rect x="245.8" y="395.2" fill="#6E777B" width="33.8" height="2.9"/>
	<rect x="246.5" y="399.9" opacity="0.5" fill="#6E777B" enable-background="new    " width="4.7" height="2.2"/>
	<g id="Layer_15_copy_4">
		<rect x="268.9" y="391.9" fill="#727B7F" width="4.9" height="2.2"/>
		<rect x="263.1" y="391.9" fill="#727B7F" width="4.9" height="2.2"/>
		<rect x="257.4" y="391.9" fill="#727B7F" width="4.9" height="2.2"/>
		<rect x="251.6" y="391.9" fill="#727B7F" width="4.9" height="2.2"/>
	</g>
	<g id="Layer_16_copy_4">
		<rect x="268.9" y="392.6" width="4.9" height="2.2"/>
		<rect x="263.1" y="392.6" width="4.9" height="2.2"/>
		<rect x="257.4" y="392.6" width="4.9" height="2.2"/>
		<rect x="251.6" y="392.6" width="4.9" height="2.2"/>
	</g>
	<rect x="246.5" y="384.6" opacity="0.5" fill="#6E777B" enable-background="new    " width="4.7" height="2.2"/>
	<rect x="274.4" y="399.7" opacity="0.5" fill="#6E777B" enable-background="new    " width="4.7" height="2.2"/>
	<rect x="274.4" y="384.5" opacity="0.5" fill="#6E777B" enable-background="new    " width="4.7" height="2.2"/>
</g>
<text transform="matrix(1 -8.659676e-003 8.659676e-003 1 237.0701 415.8168)" fill="#FFFFFF" font-family="'ArialMT'" font-size="9.2562">-- USB 2.0 --</text>
<g id="USB_Cable">
	<g>
		<g>
			<g>
				<rect x="-32.1" y="451" fill="#1C1C1C" width="265" height="7.3"/>
			</g>
		</g>
		<g opacity="0.34">
			<g>
				<rect x="-32.1" y="451" fill="#1C1C1C" width="265" height="7.3"/>
			</g>
		</g>
	</g>
	<g>
		<path fill="#292928" d="M-69.3,379.7v4.6c0,0-0.4,1.5,1.9,1.5s19.9,0.2,19.9,0.2s1.2-0.1,1.2-1.1s0-4.7,0-4.7"/>
		
			<linearGradient id="SVGID_12_" gradientUnits="userSpaceOnUse" x1="-70.4326" y1="-168.5257" x2="-57.7678" y2="-159.5773" gradientTransform="matrix(1 0 0 -1 0 213)">
			<stop  offset="0" style="stop-color:#000000"/>
			<stop  offset="1" style="stop-color:#000000"/>
		</linearGradient>
		<path fill="url(#SVGID_12_)" d="M-37.5,380.6c0,0.7-0.6,1.2-1.4,1.2h-37.8c-0.8,0-1.4-0.5-1.4-1.2v-16c0-0.7,0.6-1.2,1.4-1.2h37.8
			c0.8,0,1.4,0.5,1.4,1.2V380.6z"/>
		
			<linearGradient id="SVGID_13_" gradientUnits="userSpaceOnUse" x1="-57.0013" y1="-153.708" x2="-58.1968" y2="-170.1476" gradientTransform="matrix(1 0 0 -1 0 213)">
			<stop  offset="0" style="stop-color:#1E1E1E"/>
			<stop  offset="1" style="stop-color:#000000"/>
		</linearGradient>
		<path fill="url(#SVGID_13_)" d="M-37.3,380.9c0,0.7-0.6,1.2-1.4,1.2h-37.6c-0.8,0-1.4-0.5-1.4-1.2v-16c0-0.7,0.6-1.2,1.4-1.2h37.7
			c0.8,0,1.4,0.5,1.4,1.2v16H-37.3z"/>
		
			<linearGradient id="SVGID_14_" gradientUnits="userSpaceOnUse" x1="-80.1103" y1="-154.1509" x2="-67.6796" y2="-145.3679" gradientTransform="matrix(0.9999 -1.350000e-002 -1.350000e-002 -0.9999 8.4905 227.1974)">
			<stop  offset="0" style="stop-color:#000000"/>
			<stop  offset="1" style="stop-color:#000000"/>
		</linearGradient>
		<path fill="url(#SVGID_14_)" d="M-37.2,381.1c0,0.7-0.6,1.2-1.3,1.2l-37.1,0.5c-0.7,0-1.4-0.5-1.4-1.2l-0.2-15.8
			c0-0.7,0.6-1.2,1.3-1.2l37.1-0.5c0.7,0,1.4,0.5,1.4,1.2L-37.2,381.1z"/>
		
			<linearGradient id="SVGID_15_" gradientUnits="userSpaceOnUse" x1="-57.7508" y1="-152.596" x2="-56.4738" y2="-165.5987" gradientTransform="matrix(1 0 0 -1 0 213)">
			<stop  offset="0" style="stop-color:#1E1E1E"/>
			<stop  offset="1" style="stop-color:#000000"/>
		</linearGradient>
		<path fill="url(#SVGID_15_)" d="M-37,381.4c0,0.7-0.6,1.2-1.3,1.2l-37,0.5c-0.7,0-1.4-0.5-1.4-1.2l-0.2-15.8
			c0-0.7,0.6-1.2,1.3-1.2l37-0.5c0.7,0,1.4,0.5,1.4,1.2L-37,381.4z"/>
		
			<linearGradient id="SVGID_16_" gradientUnits="userSpaceOnUse" x1="-97.7746" y1="-148.938" x2="-85.8618" y2="-140.5209" gradientTransform="matrix(0.9993 -3.840000e-002 -3.720000e-002 -0.9671 23.8149 235.5492)">
			<stop  offset="0" style="stop-color:#000000"/>
			<stop  offset="1" style="stop-color:#000000"/>
		</linearGradient>
		<path fill="url(#SVGID_16_)" d="M-37.3,381.4c0,0.6-0.5,1.1-1.2,1.2l-35.7,1.2c-0.7,0-1.3-0.5-1.3-1.1l-0.6-14.7
			c0-0.6,0.5-1.1,1.2-1.2l35.7-1.2c0.7,0,1.3,0.5,1.3,1.1L-37.3,381.4z"/>
		
			<linearGradient id="SVGID_17_" gradientUnits="userSpaceOnUse" x1="-55.4378" y1="-180.6897" x2="-58.0042" y2="-197.7223" gradientTransform="matrix(1 -1.200000e-003 1.200000e-003 -0.9678 2.999892e-004 195.3594)">
			<stop  offset="0" style="stop-color:#1E1E1E"/>
			<stop  offset="1" style="stop-color:#000000"/>
		</linearGradient>
		<path fill="url(#SVGID_17_)" d="M-37.1,381.7c0,0.6-0.5,1.1-1.2,1.2l-35.5,1.2c-0.7,0-1.3-0.5-1.3-1.1l-0.6-14.6
			c0-0.6,0.5-1.1,1.2-1.2L-39,366c0.7,0,1.3,0.5,1.3,1.1L-37.1,381.7z"/>
		
			<linearGradient id="SVGID_18_" gradientUnits="userSpaceOnUse" x1="-130.5551" y1="-143.048" x2="-118.9297" y2="-134.8339" gradientTransform="matrix(0.9709 -3.730000e-002 -3.750000e-002 -0.9769 54.597 240.0682)">
			<stop  offset="0" style="stop-color:#000000"/>
			<stop  offset="1" style="stop-color:#000000"/>
		</linearGradient>
		<path fill="url(#SVGID_18_)" d="M-37.4,382.8c0,0.6-0.5,1.1-1.2,1.1l-33.8,1.2c-0.7,0-1.2-0.4-1.3-1l-0.6-14.4
			c0-0.6,0.5-1.1,1.2-1.1l33.8-1.2c0.7,0,1.2,0.4,1.3,1L-37.4,382.8z"/>
		
			<linearGradient id="SVGID_19_" gradientUnits="userSpaceOnUse" x1="-88.76" y1="-176.4069" x2="-90.3895" y2="-188.7472" gradientTransform="matrix(0.9716 2.000000e-004 -2.000000e-004 -0.9776 31.2351 199.2957)">
			<stop  offset="0" style="stop-color:#1E1E1E"/>
			<stop  offset="1" style="stop-color:#000000"/>
		</linearGradient>
		<path fill="url(#SVGID_19_)" d="M-37.2,383.1c0,0.6-0.5,1.1-1.2,1.1l-33.7,1.2c-0.7,0-1.2-0.4-1.3-1L-74,370
			c0-0.6,0.5-1.1,1.2-1.1l33.7-1.2c0.7,0,1.2,0.4,1.3,1L-37.2,383.1z"/>
		
			<linearGradient id="SVGID_20_" gradientUnits="userSpaceOnUse" x1="-249.3406" y1="-96.8747" x2="-238.0944" y2="-88.9286" gradientTransform="matrix(0.8992 -6.410000e-002 -7.030000e-002 -0.9862 152.3932 274.5364)">
			<stop  offset="0" style="stop-color:#000000"/>
			<stop  offset="1" style="stop-color:#000000"/>
		</linearGradient>
		<path fill="url(#SVGID_20_)" d="M-38.6,383.5c0,0.6-0.4,1.1-1,1.1l-30.4,2c-0.6,0-1.1-0.4-1.2-1l-1.1-14.1c0-0.6,0.4-1.1,1-1.1
			l30.4-2c0.6,0,1.1,0.4,1.2,1L-38.6,383.5z"/>
		
			<linearGradient id="SVGID_21_" gradientUnits="userSpaceOnUse" x1="-184.8566" y1="-175.6656" x2="-186.9621" y2="-187.479" gradientTransform="matrix(0.902 6.200000e-003 -6.200000e-003 -0.9882 111.3947 199.2799)">
			<stop  offset="0" style="stop-color:#1E1E1E"/>
			<stop  offset="1" style="stop-color:#000000"/>
		</linearGradient>
		<path fill="url(#SVGID_21_)" d="M-38.4,383.8c0,0.6-0.4,1.1-1,1.1l-30.3,1.9c-0.6,0-1.1-0.4-1.2-1l-1.1-14.1c0-0.6,0.4-1.1,1-1.1
			l30.3-1.9c0.6,0,1.1,0.4,1.2,1L-38.4,383.8z"/>
		
			<linearGradient id="SVGID_22_" gradientUnits="userSpaceOnUse" x1="-354.4352" y1="-123.1017" x2="-343.7761" y2="-115.5704" gradientTransform="matrix(0.8324 -5.930000e-002 -6.770000e-002 -0.9507 222.7316 248.1946)">
			<stop  offset="0" style="stop-color:#000000"/>
			<stop  offset="1" style="stop-color:#000000"/>
		</linearGradient>
		<path fill="url(#SVGID_22_)" d="M-40.8,384c0,0.5-0.4,1-0.9,1l-26.7,1.7c-0.5,0-1-0.4-1-0.9l-1-12.9c0-0.5,0.4-1,0.9-1l26.7-1.7
			c0.5,0,1,0.4,1,0.9L-40.8,384z"/>
		
			<linearGradient id="SVGID_23_" gradientUnits="userSpaceOnUse" x1="-288.515" y1="-211.8584" x2="-290.267" y2="-222.6051" gradientTransform="matrix(0.8351 8.400000e-003 -8.400000e-003 -0.9525 184.332 175.4863)">
			<stop  offset="0" style="stop-color:#1E1E1E"/>
			<stop  offset="1" style="stop-color:#000000"/>
		</linearGradient>
		<path fill="url(#SVGID_23_)" d="M-40.6,384.3c0,0.5-0.4,1-0.9,1l-26.6,1.7c-0.5,0-1-0.4-1-0.9l-1-12.9c0-0.5,0.4-1,0.9-1l26.6-1.7
			c0.5,0,1,0.4,1,0.9L-40.6,384.3z"/>
		<path fill="#1C1C1C" d="M-55.2,376.1c-2.9,0-3.3,4.9-3.3,4.9v39c0,21.2,13,38.4,29,38.4V451c0,0-19.2,0.8-21.8-31.1v-39
			C-51.4,381-52.3,376.1-55.2,376.1z"/>
	</g>
	<g>
		<path fill="#292928" d="M274.9,399.6v4.5c0,0,0.4,1.5-1.9,1.5s-19.9,0.2-19.9,0.2s-1.2-0.1-1.2-1.1s0-4.7,0-4.7"/>
		
			<linearGradient id="SVGID_24_" gradientUnits="userSpaceOnUse" x1="-830.5233" y1="-188.5163" x2="-817.8661" y2="-179.5733" gradientTransform="matrix(-1 0 0 -1 -554.5039 213)">
			<stop  offset="0" style="stop-color:#000000"/>
			<stop  offset="1" style="stop-color:#000000"/>
		</linearGradient>
		<path fill="url(#SVGID_24_)" d="M243.1,400.6c0,0.7,0.6,1.2,1.4,1.2h37.8c0.8,0,1.4-0.5,1.4-1.2v-16c0-0.7-0.6-1.2-1.4-1.2h-37.8
			c-0.8,0-1.4,0.5-1.4,1.2V400.6z"/>
		
			<linearGradient id="SVGID_25_" gradientUnits="userSpaceOnUse" x1="-817.204" y1="-173.7132" x2="-818.3969" y2="-190.1162" gradientTransform="matrix(-1 0 0 -1 -554.5039 213)">
			<stop  offset="0" style="stop-color:#1E1E1E"/>
			<stop  offset="1" style="stop-color:#000000"/>
		</linearGradient>
		<path fill="url(#SVGID_25_)" d="M242.9,400.9c0,0.7,0.6,1.2,1.4,1.2H282c0.8,0,1.4-0.5,1.4-1.2v-16c0-0.7-0.6-1.2-1.4-1.2h-37.7
			c-0.8,0-1.4,0.5-1.4,1.2V400.9z"/>
		
			<linearGradient id="SVGID_26_" gradientUnits="userSpaceOnUse" x1="-840.3838" y1="-163.9105" x2="-827.9609" y2="-155.133" gradientTransform="matrix(-0.9999 -1.350000e-002 1.350000e-002 -0.9999 -562.9944 227.1974)">
			<stop  offset="0" style="stop-color:#000000"/>
			<stop  offset="1" style="stop-color:#000000"/>
		</linearGradient>
		<path fill="url(#SVGID_26_)" d="M242.8,401.1c0,0.7,0.6,1.2,1.3,1.2l37.1,0.5c0.7,0,1.4-0.5,1.4-1.2l0.2-15.7
			c0-0.7-0.6-1.2-1.3-1.2l-37.1-0.5c-0.7,0-1.4,0.5-1.4,1.2L242.8,401.1z"/>
		
			<linearGradient id="SVGID_27_" gradientUnits="userSpaceOnUse" x1="-817.8533" y1="-172.6109" x2="-816.579" y2="-185.5861" gradientTransform="matrix(-1 0 0 -1 -554.5039 213)">
			<stop  offset="0" style="stop-color:#1E1E1E"/>
			<stop  offset="1" style="stop-color:#000000"/>
		</linearGradient>
		<path fill="url(#SVGID_27_)" d="M242.6,401.4c0,0.7,0.6,1.2,1.3,1.2l37,0.4c0.7,0,1.4-0.5,1.4-1.2l0.2-15.7c0-0.7-0.6-1.2-1.3-1.2
			l-37-0.4c-0.7,0-1.4,0.5-1.4,1.2L242.6,401.4z"/>
		
			<linearGradient id="SVGID_28_" gradientUnits="userSpaceOnUse" x1="-858.0403" y1="-139.4187" x2="-846.1357" y2="-131.0074" gradientTransform="matrix(-0.9993 -3.840000e-002 3.720000e-002 -0.9671 -578.3185 235.5492)">
			<stop  offset="0" style="stop-color:#000000"/>
			<stop  offset="1" style="stop-color:#000000"/>
		</linearGradient>
		<path fill="url(#SVGID_28_)" d="M242.9,401.4c0,0.6,0.5,1.1,1.2,1.1l35.7,1.2c0.7,0,1.3-0.5,1.3-1.1l0.6-14.6
			c0-0.6-0.5-1.1-1.2-1.1l-35.7-1.2c-0.7,0-1.3,0.4-1.3,1.1L242.9,401.4z"/>
		
			<linearGradient id="SVGID_29_" gradientUnits="userSpaceOnUse" x1="-815.5258" y1="-200.4136" x2="-818.0871" y2="-217.4122" gradientTransform="matrix(-1 -1.200000e-003 -1.200000e-003 -0.9678 -554.504 195.3594)">
			<stop  offset="0" style="stop-color:#1E1E1E"/>
			<stop  offset="1" style="stop-color:#000000"/>
		</linearGradient>
		<path fill="url(#SVGID_29_)" d="M242.7,401.7c0,0.6,0.5,1.1,1.2,1.1l35.5,1.2c0.7,0,1.3-0.4,1.3-1.1l0.6-14.6
			c0-0.6-0.5-1.1-1.2-1.1l-35.5-1.2c-0.7,0-1.3,0.4-1.3,1.1L242.7,401.7z"/>
		
			<linearGradient id="SVGID_30_" gradientUnits="userSpaceOnUse" x1="-913.0595" y1="-133.6296" x2="-901.4421" y2="-125.4212" gradientTransform="matrix(-0.9709 -3.730000e-002 3.750000e-002 -0.9769 -609.101 240.0682)">
			<stop  offset="0" style="stop-color:#000000"/>
			<stop  offset="1" style="stop-color:#000000"/>
		</linearGradient>
		<path fill="url(#SVGID_30_)" d="M243,402.8c0,0.6,0.5,1.1,1.2,1.1l33.8,1.2c0.7,0,1.2-0.4,1.3-1l0.6-14.4c0-0.6-0.5-1.1-1.2-1.1
			l-33.8-1.2c-0.7,0-1.2,0.4-1.3,1L243,402.8z"/>
		
			<linearGradient id="SVGID_31_" gradientUnits="userSpaceOnUse" x1="-871.035" y1="-197.0306" x2="-872.6611" y2="-209.3456" gradientTransform="matrix(-0.9716 2.000000e-004 2.000000e-004 -0.9776 -585.7387 199.2957)">
			<stop  offset="0" style="stop-color:#1E1E1E"/>
			<stop  offset="1" style="stop-color:#000000"/>
		</linearGradient>
		<path fill="url(#SVGID_31_)" d="M242.8,403.1c0,0.6,0.5,1.1,1.2,1.1l33.7,1.2c0.7,0,1.2-0.4,1.3-1l0.5-14.4c0-0.6-0.5-1.1-1.2-1.1
			l-33.7-1.2c-0.7,0-1.2,0.4-1.3,1L242.8,403.1z"/>
		
			<linearGradient id="SVGID_32_" gradientUnits="userSpaceOnUse" x1="-1091.9572" y1="-62.3406" x2="-1080.7195" y2="-54.4005" gradientTransform="matrix(-0.8992 -6.410000e-002 7.030000e-002 -0.9862 -706.8971 274.5364)">
			<stop  offset="0" style="stop-color:#000000"/>
			<stop  offset="1" style="stop-color:#000000"/>
		</linearGradient>
		<path fill="url(#SVGID_32_)" d="M244.2,403.5c0,0.6,0.4,1.1,1,1.1l30.4,1.9c0.6,0,1.1-0.4,1.2-1l1.1-14.1c0-0.6-0.4-1.1-1-1.1
			l-30.4-1.9c-0.6,0-1.1,0.4-1.2,1L244.2,403.5z"/>
		
			<linearGradient id="SVGID_33_" gradientUnits="userSpaceOnUse" x1="-1027.7184" y1="-201.1896" x2="-1029.8198" y2="-212.9802" gradientTransform="matrix(-0.902 6.200000e-003 6.200000e-003 -0.9882 -665.8983 199.2799)">
			<stop  offset="0" style="stop-color:#1E1E1E"/>
			<stop  offset="1" style="stop-color:#000000"/>
		</linearGradient>
		<path fill="url(#SVGID_33_)" d="M244,403.8c0,0.6,0.4,1.1,1,1.1l30.3,1.9c0.6,0,1.1-0.4,1.2-1l1.1-14.1c0-0.6-0.4-1.1-1-1.1
			l-30.3-1.9c-0.6,0-1.1,0.4-1.2,1L244,403.8z"/>
		
			<linearGradient id="SVGID_34_" gradientUnits="userSpaceOnUse" x1="-1264.6526" y1="-87.3464" x2="-1254.0016" y2="-79.8208" gradientTransform="matrix(-0.8324 -5.930000e-002 6.770000e-002 -0.9507 -777.2351 248.1946)">
			<stop  offset="0" style="stop-color:#000000"/>
			<stop  offset="1" style="stop-color:#000000"/>
		</linearGradient>
		<path fill="url(#SVGID_34_)" d="M246.4,404c0,0.5,0.4,1,0.9,1l26.7,1.7c0.5,0,1-0.4,1-0.9l1-12.9c0-0.5-0.4-1-0.9-1l-26.7-1.7
			c-0.5,0-1,0.4-1,0.9L246.4,404z"/>
		
			<linearGradient id="SVGID_35_" gradientUnits="userSpaceOnUse" x1="-1199.0162" y1="-240.8728" x2="-1200.7648" y2="-251.5984" gradientTransform="matrix(-0.8351 8.400000e-003 8.400000e-003 -0.9525 -738.836 175.4863)">
			<stop  offset="0" style="stop-color:#1E1E1E"/>
			<stop  offset="1" style="stop-color:#000000"/>
		</linearGradient>
		<path fill="url(#SVGID_35_)" d="M246.2,404.2c0,0.5,0.4,1,0.9,1l26.6,1.7c0.5,0,1-0.4,1-0.9l1-12.9c0-0.5-0.4-1-0.9-1l-26.6-1.7
			c-0.5,0-1,0.4-1,0.9L246.2,404.2z"/>
		<path fill="#1C1C1C" d="M261.8,393.6c2.8,0,3.2,3.8,3.2,3.8v30.7c0,16.7-12.7,30.2-28.3,30.2h-32.8v-7.4h32.8
			c11.8,0,21.3-10.2,21.3-22.8v-30.7C258.1,397.5,259,393.6,261.8,393.6z"/>
	</g>
</g>
</svg>
