<?xml version="1.0" encoding="utf-8"?>
<!-- Generator: Adobe Illustrator 17.1.0, SVG Export Plug-In . SVG Version: 6.00 Build 0)  -->
<!DOCTYPE svg PUBLIC "-//W3C//DTD SVG 1.1//EN" "http://www.w3.org/Graphics/SVG/1.1/DTD/svg11.dtd">
<svg version="1.1" id="Layer_1" xmlns="http://www.w3.org/2000/svg" xmlns:xlink="http://www.w3.org/1999/xlink" x="0px" y="0px"
	 width="50" height="50" viewBox="0 0 50 50" enable-background="new 0 0 50 50" xml:space="preserve">
<g enable-background="new    ">
	<path d="M17,33.4l1.4,0.4c-0.2,0.8-0.6,1.4-1.1,1.7c-0.5,0.4-1.1,0.6-1.9,0.6c-1,0-1.7-0.3-2.3-1c-0.6-0.7-0.9-1.5-0.9-2.7
		c0-1.2,0.3-2.1,0.9-2.8c0.6-0.7,1.4-1,2.4-1c0.9,0,1.6,0.3,2.1,0.8c0.3,0.3,0.6,0.7,0.7,1.3l-1.4,0.3c-0.1-0.4-0.3-0.7-0.5-0.9
		s-0.6-0.3-1-0.3c-0.5,0-1,0.2-1.3,0.6s-0.5,1-0.5,1.9c0,0.9,0.2,1.5,0.5,1.9s0.7,0.6,1.3,0.6c0.4,0,0.7-0.1,1-0.4
		S16.9,33.9,17,33.4z"/>
	<path d="M20.6,32.4l-1.2-0.2c0.1-0.5,0.4-0.9,0.7-1.1s0.8-0.4,1.5-0.4c0.6,0,1.1,0.1,1.4,0.2c0.3,0.1,0.5,0.3,0.6,0.6
		c0.1,0.2,0.2,0.6,0.2,1.2l0,1.6c0,0.5,0,0.8,0.1,1c0,0.2,0.1,0.4,0.2,0.7h-1.4c0-0.1-0.1-0.2-0.1-0.4c0-0.1,0-0.1,0-0.2
		c-0.2,0.2-0.5,0.4-0.8,0.5s-0.6,0.2-0.9,0.2c-0.5,0-1-0.1-1.3-0.4s-0.5-0.7-0.5-1.1c0-0.3,0.1-0.6,0.2-0.8c0.1-0.2,0.3-0.4,0.6-0.5
		c0.3-0.1,0.6-0.2,1.1-0.3c0.6-0.1,1.1-0.2,1.3-0.3v-0.1c0-0.3-0.1-0.5-0.2-0.6c-0.1-0.1-0.4-0.2-0.7-0.2c-0.2,0-0.4,0-0.6,0.1
		C20.8,32,20.7,32.2,20.6,32.4z M22.5,33.5c-0.2,0.1-0.5,0.1-0.8,0.2S21,33.9,20.9,34c-0.2,0.1-0.3,0.3-0.3,0.5
		c0,0.2,0.1,0.4,0.2,0.5s0.3,0.2,0.5,0.2c0.2,0,0.5-0.1,0.7-0.2c0.2-0.1,0.3-0.3,0.3-0.5c0-0.1,0.1-0.3,0.1-0.7V33.5z"/>
	<path d="M25.1,36v-7.2h1.4v2.6c0.4-0.5,0.9-0.7,1.5-0.7c0.6,0,1.2,0.2,1.6,0.7c0.4,0.5,0.6,1.1,0.6,2c0,0.9-0.2,1.6-0.6,2
		c-0.4,0.5-0.9,0.7-1.5,0.7c-0.3,0-0.6-0.1-0.9-0.2c-0.3-0.1-0.5-0.4-0.7-0.7V36H25.1z M26.5,33.3c0,0.5,0.1,0.9,0.3,1.2
		c0.2,0.4,0.6,0.5,0.9,0.5c0.3,0,0.6-0.1,0.8-0.4c0.2-0.3,0.3-0.7,0.3-1.2c0-0.6-0.1-1-0.3-1.3c-0.2-0.3-0.5-0.4-0.8-0.4
		c-0.3,0-0.6,0.1-0.8,0.4C26.6,32.4,26.5,32.8,26.5,33.3z"/>
	<path d="M31.3,36v-7.2h1.4V36H31.3z"/>
	<path d="M37.1,34.3l1.4,0.2c-0.2,0.5-0.5,0.9-0.8,1.1c-0.4,0.3-0.9,0.4-1.4,0.4c-0.9,0-1.6-0.3-2-0.9c-0.3-0.5-0.5-1.1-0.5-1.8
		c0-0.9,0.2-1.5,0.7-2c0.4-0.5,1-0.7,1.7-0.7c0.8,0,1.4,0.3,1.8,0.8c0.4,0.5,0.7,1.3,0.6,2.3h-3.4c0,0.4,0.1,0.7,0.3,0.9
		c0.2,0.2,0.5,0.3,0.8,0.3c0.2,0,0.4-0.1,0.5-0.2S37,34.6,37.1,34.3z M37.1,33c0-0.4-0.1-0.7-0.3-0.9c-0.2-0.2-0.4-0.3-0.7-0.3
		c-0.3,0-0.5,0.1-0.7,0.3s-0.3,0.5-0.3,0.9H37.1z"/>
</g>
<g enable-background="new    ">
	<path d="M7.9,45v-7.2H10l1.3,4.9l1.3-4.9h2.2V45h-1.3v-5.6L12,45h-1.4l-1.4-5.6V45H7.9z"/>
	<path d="M15.9,42.3c0-0.5,0.1-0.9,0.3-1.3s0.5-0.8,1-1s0.9-0.3,1.4-0.3c0.8,0,1.4,0.3,1.9,0.8c0.5,0.5,0.8,1.2,0.8,1.9
		c0,0.8-0.3,1.4-0.8,2c-0.5,0.5-1.1,0.8-1.9,0.8c-0.5,0-0.9-0.1-1.4-0.3s-0.8-0.5-1-0.9C16,43.4,15.9,42.9,15.9,42.3z M17.3,42.4
		c0,0.5,0.1,0.9,0.4,1.2s0.5,0.4,0.9,0.4s0.7-0.1,0.9-0.4s0.4-0.7,0.4-1.2c0-0.5-0.1-0.9-0.4-1.2s-0.5-0.4-0.9-0.4s-0.7,0.1-0.9,0.4
		S17.3,41.9,17.3,42.4z"/>
	<path d="M27.1,45h-1.3v-0.8c-0.2,0.3-0.5,0.5-0.7,0.7c-0.3,0.1-0.6,0.2-0.9,0.2c-0.6,0-1.1-0.2-1.5-0.7c-0.4-0.5-0.6-1.1-0.6-2
		c0-0.9,0.2-1.5,0.6-2c0.4-0.5,0.9-0.7,1.6-0.7c0.6,0,1.1,0.2,1.5,0.7v-2.6h1.4V45z M23.4,42.3c0,0.6,0.1,1,0.2,1.2
		c0.2,0.4,0.5,0.5,0.9,0.5c0.3,0,0.6-0.1,0.8-0.4c0.2-0.3,0.3-0.7,0.3-1.2c0-0.6-0.1-1-0.3-1.3c-0.2-0.3-0.5-0.4-0.8-0.4
		c-0.3,0-0.6,0.1-0.8,0.4C23.5,41.4,23.4,41.8,23.4,42.3z"/>
	<path d="M31.4,43.3l1.4,0.2c-0.2,0.5-0.5,0.9-0.8,1.1c-0.4,0.3-0.9,0.4-1.4,0.4c-0.9,0-1.6-0.3-2-0.9c-0.3-0.5-0.5-1.1-0.5-1.8
		c0-0.9,0.2-1.5,0.7-2c0.4-0.5,1-0.7,1.7-0.7c0.8,0,1.4,0.3,1.8,0.8c0.4,0.5,0.7,1.3,0.6,2.3h-3.4c0,0.4,0.1,0.7,0.3,0.9
		c0.2,0.2,0.5,0.3,0.8,0.3c0.2,0,0.4-0.1,0.5-0.2S31.4,43.6,31.4,43.3z M31.5,42c0-0.4-0.1-0.7-0.3-0.9c-0.2-0.2-0.4-0.3-0.7-0.3
		c-0.3,0-0.5,0.1-0.7,0.3s-0.3,0.5-0.3,0.9H31.5z"/>
	<path d="M33.9,39.8h1.3v0.7c0.5-0.5,1-0.8,1.6-0.8c0.3,0,0.6,0.1,0.9,0.2s0.4,0.3,0.6,0.6c0.2-0.3,0.5-0.5,0.7-0.6s0.5-0.2,0.8-0.2
		c0.4,0,0.7,0.1,1,0.2c0.3,0.2,0.5,0.4,0.6,0.7c0.1,0.2,0.1,0.6,0.1,1.1V45h-1.4v-3c0-0.5,0-0.8-0.1-1c-0.1-0.2-0.3-0.3-0.6-0.3
		c-0.2,0-0.4,0.1-0.5,0.2s-0.3,0.3-0.4,0.5c-0.1,0.2-0.1,0.6-0.1,1.1V45H37v-2.8c0-0.5,0-0.8-0.1-1s-0.1-0.3-0.2-0.3
		c-0.1-0.1-0.2-0.1-0.4-0.1c-0.2,0-0.4,0.1-0.6,0.2s-0.3,0.3-0.4,0.5c-0.1,0.2-0.1,0.6-0.1,1.1V45h-1.4V39.8z"/>
</g>
<g>
	<polygon fill="#006C86" points="40.8,24.9 40.8,15.1 49,7.6 49,15.9 	"/>
	<rect x="1.2" y="15.1" fill="#5298AE" width="39.6" height="9.9"/>
	<polygon fill="#90BBCB" points="40.8,15.1 1.2,15.1 10.8,7.6 49,7.6 	"/>
	<circle fill="#FFFFFF" cx="8.1" cy="20" r="1.4"/>
	<circle fill="#FFFFFF" cx="14.4" cy="20" r="1.4"/>
	<circle fill="#FFFFFF" cx="20.7" cy="20" r="1.4"/>
	<circle fill="#FFFFFF" cx="27" cy="20" r="1.4"/>
	<circle fill="#FFFFFF" cx="33.3" cy="20" r="1.4"/>
</g>
</svg>
