<?xml version="1.0" encoding="utf-8"?>
<!-- Generator: Adobe Illustrator 17.1.0, SVG Export Plug-In . SVG Version: 6.00 Build 0)  -->
<!DOCTYPE svg PUBLIC "-//W3C//DTD SVG 1.1//EN" "http://www.w3.org/Graphics/SVG/1.1/DTD/svg11.dtd">
<svg version="1.1" id="Layer_1" xmlns="http://www.w3.org/2000/svg" xmlns:xlink="http://www.w3.org/1999/xlink" x="0px" y="0px"
	 width="50" height="50" viewBox="0 0 50 50" enable-background="new 0 0 50 50" xml:space="preserve">
<linearGradient id="SVGID_1_" gradientUnits="userSpaceOnUse" x1="-105.0712" y1="30.8677" x2="-100.4962" y2="30.8677" gradientTransform="matrix(-1 0 0 -1 -74 51)">
	<stop  offset="0" style="stop-color:#51848A"/>
	<stop  offset="0.4199" style="stop-color:#4F7D83"/>
	<stop  offset="1" style="stop-color:#496A73"/>
</linearGradient>
<line fill="none" stroke="url(#SVGID_1_)" stroke-miterlimit="10" x1="30.7" y1="18.2" x2="26.9" y2="22.1"/>
<linearGradient id="SVGID_2_" gradientUnits="userSpaceOnUse" x1="22.6969" y1="30.8677" x2="27.2719" y2="30.8677" gradientTransform="matrix(1 0 0 -1 0 51)">
	<stop  offset="0" style="stop-color:#51848A"/>
	<stop  offset="0.4199" style="stop-color:#4F7D83"/>
	<stop  offset="1" style="stop-color:#496A73"/>
</linearGradient>
<line fill="none" stroke="url(#SVGID_2_)" stroke-miterlimit="10" x1="23.1" y1="18.2" x2="26.9" y2="22.1"/>
<linearGradient id="SVGID_3_" gradientUnits="userSpaceOnUse" x1="21.4053" y1="32.9844" x2="30.2188" y2="32.9844" gradientTransform="matrix(1 0 0 -1 0 51)">
	<stop  offset="0" style="stop-color:#51848A"/>
	<stop  offset="0.4199" style="stop-color:#4F7D83"/>
	<stop  offset="1" style="stop-color:#496A73"/>
</linearGradient>
<line fill="none" stroke="url(#SVGID_3_)" stroke-miterlimit="10" x1="21.7" y1="21.5" x2="29.9" y2="14.6"/>
<linearGradient id="SVGID_4_" gradientUnits="userSpaceOnUse" x1="21.4053" y1="32.9844" x2="30.2188" y2="32.9844" gradientTransform="matrix(1 0 0 -1 0 51)">
	<stop  offset="0" style="stop-color:#51848A"/>
	<stop  offset="0.4199" style="stop-color:#4F7D83"/>
	<stop  offset="1" style="stop-color:#496A73"/>
</linearGradient>
<line fill="none" stroke="url(#SVGID_4_)" stroke-miterlimit="10" x1="21.7" y1="21.5" x2="29.9" y2="14.6"/>
<linearGradient id="SVGID_5_" gradientUnits="userSpaceOnUse" x1="22.4519" y1="37.0551" x2="29.1109" y2="37.0551" gradientTransform="matrix(1 0 0 -1 0 51)">
	<stop  offset="0" style="stop-color:#51848A"/>
	<stop  offset="0.4199" style="stop-color:#4F7D83"/>
	<stop  offset="1" style="stop-color:#496A73"/>
</linearGradient>
<line fill="none" stroke="url(#SVGID_5_)" stroke-miterlimit="10" x1="22.8" y1="17.7" x2="28.7" y2="10.1"/>
<linearGradient id="SVGID_6_" gradientUnits="userSpaceOnUse" x1="-100.2649" y1="32.9844" x2="-91.4514" y2="32.9844" gradientTransform="matrix(-1 0 0 -1 -67.875 51)">
	<stop  offset="0" style="stop-color:#51848A"/>
	<stop  offset="0.4199" style="stop-color:#4F7D83"/>
	<stop  offset="1" style="stop-color:#496A73"/>
</linearGradient>
<line fill="none" stroke="url(#SVGID_6_)" stroke-miterlimit="10" x1="32.1" y1="21.5" x2="23.9" y2="14.6"/>
<linearGradient id="SVGID_7_" gradientUnits="userSpaceOnUse" x1="-99.2256" y1="37.0551" x2="-92.5652" y2="37.0551" gradientTransform="matrix(-1 0 0 -1 -67.875 51)">
	<stop  offset="0" style="stop-color:#51848A"/>
	<stop  offset="0.4199" style="stop-color:#4F7D83"/>
	<stop  offset="1" style="stop-color:#496A73"/>
</linearGradient>
<line fill="none" stroke="url(#SVGID_7_)" stroke-miterlimit="10" x1="31" y1="17.7" x2="25.1" y2="10.1"/>
<linearGradient id="SVGID_8_" gradientUnits="userSpaceOnUse" x1="24.9844" y1="40.9902" x2="28.7837" y2="40.9902" gradientTransform="matrix(1 0 0 -1 0 51)">
	<stop  offset="0" style="stop-color:#51848A"/>
	<stop  offset="0.4199" style="stop-color:#4F7D83"/>
	<stop  offset="1" style="stop-color:#496A73"/>
</linearGradient>
<line fill="none" stroke="url(#SVGID_8_)" stroke-miterlimit="10" x1="25" y1="10" x2="28.8" y2="10"/>
<linearGradient id="SVGID_9_" gradientUnits="userSpaceOnUse" x1="23.7631" y1="36.5395" x2="30.0727" y2="36.5395" gradientTransform="matrix(1 0 0 -1 0 51)">
	<stop  offset="0" style="stop-color:#51848A"/>
	<stop  offset="0.4199" style="stop-color:#4F7D83"/>
	<stop  offset="1" style="stop-color:#496A73"/>
</linearGradient>
<line fill="none" stroke="url(#SVGID_9_)" stroke-miterlimit="10" x1="23.8" y1="14.5" x2="30.1" y2="14.5"/>
<linearGradient id="SVGID_10_" gradientUnits="userSpaceOnUse" x1="22.7455" y1="32.9844" x2="31.0904" y2="32.9844" gradientTransform="matrix(1 0 0 -1 0 51)">
	<stop  offset="0" style="stop-color:#51848A"/>
	<stop  offset="0.4199" style="stop-color:#4F7D83"/>
	<stop  offset="1" style="stop-color:#496A73"/>
</linearGradient>
<line fill="none" stroke="url(#SVGID_10_)" stroke-miterlimit="10" x1="22.8" y1="18" x2="31.1" y2="18"/>
<linearGradient id="SVGID_11_" gradientUnits="userSpaceOnUse" x1="20.6356" y1="36.4852" x2="26.6177" y2="36.4852" gradientTransform="matrix(1 0 0 -1 0 51)">
	<stop  offset="0" style="stop-color:#51848A"/>
	<stop  offset="0.4199" style="stop-color:#4F7D83"/>
	<stop  offset="1" style="stop-color:#496A73"/>
</linearGradient>
<line fill="none" stroke="url(#SVGID_11_)" stroke-miterlimit="10" x1="26.2" y1="5.7" x2="21.1" y2="23.3"/>
<linearGradient id="SVGID_12_" gradientUnits="userSpaceOnUse" x1="-115.131" y1="36.4852" x2="-109.1488" y2="36.4852" gradientTransform="matrix(-1 0 0 -1 -82 51)">
	<stop  offset="0" style="stop-color:#51848A"/>
	<stop  offset="0.4199" style="stop-color:#4F7D83"/>
	<stop  offset="1" style="stop-color:#496A73"/>
</linearGradient>
<line fill="none" stroke="url(#SVGID_12_)" stroke-miterlimit="10" x1="27.6" y1="5.7" x2="32.7" y2="23.3"/>
<linearGradient id="SVGID_13_" gradientUnits="userSpaceOnUse" x1="26.3097" y1="36.0646" x2="27.3097" y2="36.0646" gradientTransform="matrix(1 0 0 -1 0 51)">
	<stop  offset="0" style="stop-color:#51848A"/>
	<stop  offset="0.4199" style="stop-color:#4F7D83"/>
	<stop  offset="1" style="stop-color:#496A73"/>
</linearGradient>
<line fill="none" stroke="url(#SVGID_13_)" stroke-miterlimit="10" x1="26.8" y1="5.9" x2="26.8" y2="24"/>
<radialGradient id="SVGID_14_" cx="26.8614" cy="45.6986" r="1.583" gradientTransform="matrix(1 0 0 -1 0 51)" gradientUnits="userSpaceOnUse">
	<stop  offset="0" style="stop-color:#51848A"/>
	<stop  offset="0.4199" style="stop-color:#4F7D83"/>
	<stop  offset="1" style="stop-color:#496A73"/>
</radialGradient>
<circle fill="url(#SVGID_14_)" cx="26.9" cy="5.3" r="1.6"/>
<linearGradient id="SVGID_15_" gradientUnits="userSpaceOnUse" x1="158.6387" y1="163.5972" x2="162.2259" y2="163.5972" gradientTransform="matrix(0.6791 0.7341 0.7341 -0.6791 -204.8719 -1.5736)">
	<stop  offset="0" style="stop-color:#51848A"/>
	<stop  offset="0.4199" style="stop-color:#4F7D83"/>
	<stop  offset="1" style="stop-color:#496A73"/>
</linearGradient>
<path fill="none" stroke="url(#SVGID_15_)" stroke-miterlimit="10" d="M24.6,2.9c-1.2,1.2-1.3,3.1-0.2,4.4"/>
<linearGradient id="SVGID_16_" gradientUnits="userSpaceOnUse" x1="157.0517" y1="162.7997" x2="162.3299" y2="162.7997" gradientTransform="matrix(0.6791 0.7341 0.7341 -0.6791 -204.8719 -1.5736)">
	<stop  offset="0" style="stop-color:#51848A"/>
	<stop  offset="0.4199" style="stop-color:#4F7D83"/>
	<stop  offset="1" style="stop-color:#496A73"/>
</linearGradient>
<path fill="none" stroke="url(#SVGID_16_)" stroke-miterlimit="10" d="M23.6,1.7c-1.9,1.8-2.1,4.8-0.3,6.8"/>
<linearGradient id="SVGID_17_" gradientUnits="userSpaceOnUse" x1="155.7767" y1="161.9832" x2="162.0931" y2="161.9832" gradientTransform="matrix(0.6791 0.7341 0.7341 -0.6791 -204.8719 -1.5736)">
	<stop  offset="0" style="stop-color:#51848A"/>
	<stop  offset="0.4199" style="stop-color:#4F7D83"/>
	<stop  offset="1" style="stop-color:#496A73"/>
</linearGradient>
<path fill="none" stroke="url(#SVGID_17_)" stroke-miterlimit="10" d="M22.5,1c-2.4,2.2-2.5,5.9-0.3,8.2"/>
<linearGradient id="SVGID_18_" gradientUnits="userSpaceOnUse" x1="60.0859" y1="57.0629" x2="63.6732" y2="57.0629" gradientTransform="matrix(-0.6791 0.7341 -0.7341 -0.6791 113.3703 -1.5736)">
	<stop  offset="0" style="stop-color:#51848A"/>
	<stop  offset="0.4199" style="stop-color:#4F7D83"/>
	<stop  offset="1" style="stop-color:#496A73"/>
</linearGradient>
<path fill="none" stroke="url(#SVGID_18_)" stroke-miterlimit="10" d="M29,2.9c1.2,1.2,1.3,3.1,0.2,4.4"/>
<linearGradient id="SVGID_19_" gradientUnits="userSpaceOnUse" x1="58.4991" y1="56.2654" x2="63.7773" y2="56.2654" gradientTransform="matrix(-0.6791 0.7341 -0.7341 -0.6791 113.3703 -1.5736)">
	<stop  offset="0" style="stop-color:#51848A"/>
	<stop  offset="0.4199" style="stop-color:#4F7D83"/>
	<stop  offset="1" style="stop-color:#496A73"/>
</linearGradient>
<path fill="none" stroke="url(#SVGID_19_)" stroke-miterlimit="10" d="M30.1,1.7c1.9,1.8,2.1,4.8,0.3,6.8"/>
<linearGradient id="SVGID_20_" gradientUnits="userSpaceOnUse" x1="57.2241" y1="55.4488" x2="63.5405" y2="55.4488" gradientTransform="matrix(-0.6791 0.7341 -0.7341 -0.6791 113.3703 -1.5736)">
	<stop  offset="0" style="stop-color:#51848A"/>
	<stop  offset="0.4199" style="stop-color:#4F7D83"/>
	<stop  offset="1" style="stop-color:#496A73"/>
</linearGradient>
<path fill="none" stroke="url(#SVGID_20_)" stroke-miterlimit="10" d="M31.1,1c2.4,2.2,2.5,5.9,0.3,8.2"/>
<g>
	<path d="M22.1,30l1.5,0.5c-0.2,0.9-0.6,1.5-1.2,1.9c-0.5,0.4-1.2,0.6-2.1,0.6c-1,0-1.9-0.4-2.6-1.1c-0.7-0.7-1-1.7-1-2.9
		c0-1.3,0.3-2.3,1-3.1c0.7-0.7,1.6-1.1,2.7-1.1c1,0,1.7,0.3,2.3,0.9c0.4,0.3,0.6,0.8,0.8,1.5l-1.6,0.4c-0.1-0.4-0.3-0.7-0.6-1
		c-0.3-0.2-0.7-0.4-1.1-0.4c-0.6,0-1.1,0.2-1.4,0.6c-0.4,0.4-0.5,1.1-0.5,2c0,1,0.2,1.7,0.5,2.1s0.8,0.6,1.4,0.6
		c0.4,0,0.8-0.1,1.1-0.4C21.8,31,22,30.6,22.1,30z"/>
	<path d="M28.3,31.1l1.5,0.3c-0.2,0.6-0.5,1-0.9,1.3C28.5,32.9,28,33,27.3,33c-1,0-1.7-0.3-2.2-1c-0.4-0.5-0.6-1.2-0.6-2
		c0-0.9,0.2-1.7,0.7-2.2c0.5-0.5,1.1-0.8,1.9-0.8c0.8,0,1.5,0.3,2,0.8s0.7,1.4,0.7,2.6h-3.8c0,0.4,0.1,0.8,0.4,1s0.5,0.4,0.9,0.4
		c0.2,0,0.4-0.1,0.6-0.2C28.1,31.6,28.2,31.3,28.3,31.1z M28.4,29.5c0-0.4-0.1-0.8-0.3-1s-0.5-0.3-0.8-0.3c-0.3,0-0.6,0.1-0.8,0.4
		s-0.3,0.6-0.3,1H28.4z"/>
	<path d="M31.1,32.9V25h1.5v7.9H31.1z"/>
	<path d="M34.2,32.9V25h1.5v7.9H34.2z"/>
	<path d="M13.2,40.9v-6.5h-2.3V33h6.3v1.3h-2.3v6.5H13.2z"/>
	<path d="M16.9,37.9c0-0.5,0.1-1,0.4-1.5c0.2-0.5,0.6-0.8,1.1-1.1c0.5-0.2,1-0.4,1.5-0.4c0.9,0,1.6,0.3,2.1,0.8s0.8,1.3,0.8,2.1
		c0,0.9-0.3,1.6-0.8,2.1c-0.6,0.6-1.3,0.9-2.1,0.9c-0.5,0-1-0.1-1.5-0.4c-0.5-0.2-0.8-0.6-1.1-1C17.1,39.2,16.9,38.6,16.9,37.9z
		 M18.5,38c0,0.6,0.1,1,0.4,1.3s0.6,0.5,1,0.5s0.7-0.2,1-0.5c0.3-0.3,0.4-0.7,0.4-1.3c0-0.6-0.1-1-0.4-1.3c-0.3-0.3-0.6-0.5-1-0.5
		s-0.7,0.2-1,0.5S18.5,37.5,18.5,38z"/>
	<path d="M25.1,40.9l-1.8-5.7h1.5l1.1,3.7l1-3.7h1.5l1,3.7l1.1-3.7h1.5l-1.8,5.7h-1.4l-1-3.7l-1,3.7H25.1z"/>
	<path d="M35.9,39.1l1.5,0.3c-0.2,0.6-0.5,1-0.9,1.3S35.5,41,34.9,41c-1,0-1.7-0.3-2.2-1c-0.4-0.5-0.6-1.2-0.6-2
		c0-0.9,0.2-1.7,0.7-2.2c0.5-0.5,1.1-0.8,1.9-0.8c0.8,0,1.5,0.3,2,0.8s0.7,1.4,0.7,2.6h-3.8c0,0.4,0.1,0.8,0.4,1
		c0.2,0.2,0.5,0.4,0.9,0.4c0.2,0,0.4-0.1,0.6-0.2S35.8,39.3,35.9,39.1z M35.9,37.5c0-0.4-0.1-0.8-0.3-1s-0.5-0.3-0.8-0.3
		c-0.3,0-0.6,0.1-0.8,0.4s-0.3,0.6-0.3,1H35.9z"/>
	<path d="M40.1,40.9h-1.5v-5.7H40V36c0.2-0.4,0.5-0.6,0.6-0.8s0.4-0.2,0.7-0.2c0.3,0,0.7,0.1,1,0.3l-0.5,1.3
		c-0.3-0.2-0.5-0.2-0.7-0.2c-0.2,0-0.4,0.1-0.5,0.2c-0.1,0.1-0.3,0.3-0.3,0.6s-0.1,0.9-0.1,1.9V40.9z"/>
</g>
</svg>
