<?xml version="1.0" encoding="utf-8"?>
<!-- Generator: Adobe Illustrator 17.1.0, SVG Export Plug-In . SVG Version: 6.00 Build 0)  -->
<!DOCTYPE svg PUBLIC "-//W3C//DTD SVG 1.1//EN" "http://www.w3.org/Graphics/SVG/1.1/DTD/svg11.dtd">
<svg version="1.1" id="Layer_1" xmlns="http://www.w3.org/2000/svg" xmlns:xlink="http://www.w3.org/1999/xlink" x="0px" y="0px"
	 width="50" height="50" viewBox="0 0 50 50" enable-background="new 0 0 50 50" xml:space="preserve">
<g>
	<path d="M8.1,39.5v-7.9h2.6c1,0,1.6,0,1.9,0.1c0.5,0.1,0.8,0.4,1.1,0.8s0.5,0.9,0.5,1.5c0,0.5-0.1,0.9-0.3,1.2s-0.4,0.6-0.7,0.8
		c-0.3,0.2-0.5,0.3-0.8,0.4c-0.4,0.1-0.9,0.1-1.6,0.1h-1v3H8.1z M9.7,33v2.2h0.9c0.6,0,1,0,1.3-0.1c0.2-0.1,0.4-0.2,0.5-0.4
		c0.1-0.2,0.2-0.4,0.2-0.6c0-0.3-0.1-0.5-0.3-0.7c-0.2-0.2-0.4-0.3-0.6-0.3C11.4,33,11,33,10.4,33H9.7z"/>
	<path d="M16.8,39.5h-1.5v-5.7h1.4v0.8c0.2-0.4,0.5-0.6,0.6-0.8c0.2-0.1,0.4-0.2,0.7-0.2c0.3,0,0.7,0.1,1,0.3l-0.5,1.3
		c-0.3-0.2-0.5-0.2-0.7-0.2c-0.2,0-0.4,0.1-0.5,0.2s-0.3,0.3-0.3,0.6c-0.1,0.3-0.1,0.9-0.1,1.9V39.5z"/>
	<path d="M19.7,33v-1.4h1.5V33H19.7z M19.7,39.5v-5.7h1.5v5.7H19.7z"/>
	<path d="M27.9,39.5h-1.5v-2.9c0-0.6,0-1-0.1-1.2S26.1,35.1,26,35c-0.1-0.1-0.3-0.2-0.5-0.2c-0.3,0-0.5,0.1-0.7,0.2
		c-0.2,0.1-0.4,0.3-0.4,0.6c-0.1,0.2-0.1,0.7-0.1,1.3v2.6h-1.5v-5.7h1.4v0.8c0.5-0.6,1.1-1,1.9-1c0.3,0,0.6,0.1,0.9,0.2
		s0.5,0.3,0.6,0.5c0.1,0.2,0.2,0.4,0.3,0.6s0.1,0.6,0.1,1V39.5z"/>
	<path d="M32.1,33.8V35h-1v2.3c0,0.5,0,0.7,0,0.8c0,0.1,0.1,0.1,0.1,0.2c0.1,0,0.2,0.1,0.3,0.1c0.1,0,0.3,0,0.6-0.1l0.1,1.2
		c-0.4,0.2-0.7,0.2-1.2,0.2c-0.3,0-0.5,0-0.7-0.1c-0.2-0.1-0.4-0.2-0.5-0.4c-0.1-0.1-0.2-0.3-0.2-0.6c0-0.2,0-0.5,0-1.1V35h-0.7
		v-1.2h0.7v-1.1l1.5-0.9v2H32.1z"/>
	<path d="M36.4,37.7l1.5,0.3c-0.2,0.6-0.5,1-0.9,1.3c-0.4,0.3-0.9,0.4-1.6,0.4c-1,0-1.7-0.3-2.2-1c-0.4-0.5-0.6-1.2-0.6-2
		c0-0.9,0.2-1.7,0.7-2.2s1.1-0.8,1.9-0.8c0.8,0,1.5,0.3,2,0.8c0.5,0.6,0.7,1.4,0.7,2.6h-3.8c0,0.4,0.1,0.8,0.4,1s0.5,0.4,0.9,0.4
		c0.2,0,0.4-0.1,0.6-0.2C36.2,38.2,36.3,38,36.4,37.7z M36.5,36.2c0-0.4-0.1-0.8-0.3-1s-0.5-0.3-0.8-0.3c-0.3,0-0.6,0.1-0.8,0.4
		s-0.3,0.6-0.3,1H36.5z"/>
	<path d="M40.7,39.5h-1.5v-5.7h1.4v0.8c0.2-0.4,0.5-0.6,0.6-0.8s0.4-0.2,0.7-0.2c0.3,0,0.7,0.1,1,0.3l-0.5,1.3
		c-0.3-0.2-0.5-0.2-0.7-0.2c-0.2,0-0.4,0.1-0.5,0.2s-0.3,0.3-0.3,0.6s-0.1,0.9-0.1,1.9V39.5z"/>
</g>
<g id="Layer_2">
	<rect x="3.1" y="15" fill="#5298AE" width="29.9" height="13.6"/>
	<polygon fill="#90BBCB" points="3.1,15 33,15 36.7,11.3 7.7,11.3 	"/>
	<polygon fill="#006C86" points="33,28.6 36.7,24.3 36.7,11.3 33,15 	"/>
	<line fill="none" stroke="#006C86" stroke-width="0.255" x1="33" y1="25" x2="3.1" y2="25"/>
	<line fill="none" stroke="#00607A" stroke-width="0.255" x1="33" y1="24.9" x2="36.8" y2="21.1"/>
	<line fill="none" stroke="#B1CFDB" stroke-width="0.255" x1="33" y1="25.2" x2="3.1" y2="25.2"/>
	<line fill="none" stroke="#5298AE" stroke-width="0.255" x1="36.8" y1="21.4" x2="33" y2="25.3"/>
	<rect x="36.7" y="11" fill="#FFFFFF" width="0.5" height="13.5"/>
	<polygon fill="#90BBCB" points="49,13.4 45.2,17.2 33,21.5 36.8,17.7 	"/>
	<polygon fill="#5298AE" points="33,21.5 33,21.9 45.2,17.9 45.2,17.2 	"/>
	<polygon fill="#006C86" points="45.2,17.2 45.2,17.9 49,14 49,13.4 	"/>
</g>
</svg>
